<svg xmlns="http://www.w3.org/2000/svg" xmlns:xlink="http://www.w3.org/1999/xlink" width="500" zoomAndPan="magnify" viewBox="0 0 375 200" height="525" preserveAspectRatio="xMidYMid meet" version="1.0"><defs><clipPath id="9f73916d50"><path d="M 0 135.761719 L 375 135.761719 L 375 234 L 0 234 Z M 0 135.761719 " clip-rule="nonzero"/></clipPath></defs><rect x="-37.5" width="450" fill="#ffffff" y="-37.499999" height="449.999989" fill-opacity="1"/><rect x="-37.5" width="450" fill="#ffffff" y="-37.499999" height="449.999989" fill-opacity="1"/><g clip-path="url(#9f73916d50)"><path fill="#fefdfd" d="M 0.0117188 135.761719 C 123.753906 135.761719 247.496094 135.761719 374.988281 135.761719 C 374.988281 168.019531 374.988281 200.273438 374.988281 233.507812 C 251.246094 233.507812 127.503906 233.507812 0.0117188 233.507812 C 0.0117188 201.25 0.0117188 168.996094 0.0117188 135.761719 Z M 0.0117188 135.761719 " fill-opacity="1" fill-rule="nonzero"/></g><path fill="#d15a1b" d="M 347.121094 142.511719 C 347.933594 142.539062 347.933594 142.539062 348.761719 142.570312 C 347.21875 144.21875 345.578125 145.632812 343.808594 147.039062 C 343.371094 147.386719 342.933594 147.734375 342.484375 148.09375 C 341.984375 148.488281 341.984375 148.488281 341.472656 148.894531 C 341.90625 148.933594 342.339844 148.972656 342.785156 149.011719 C 344.429688 149.160156 346.070312 149.3125 347.714844 149.460938 C 348.417969 149.527344 349.121094 149.589844 349.828125 149.65625 C 354.671875 150.09375 359.484375 150.640625 364.304688 151.324219 C 364.214844 151.675781 364.121094 152.027344 364.03125 152.386719 C 363.808594 153.816406 363.945312 154.796875 364.304688 156.1875 C 356.589844 155.738281 348.875 155.285156 341.171875 154.699219 C 340.40625 154.640625 340.40625 154.640625 339.621094 154.582031 C 337.144531 154.386719 334.699219 154.144531 332.246094 153.757812 C 332.46875 154.738281 332.695312 155.71875 332.921875 156.699219 C 333.132812 157.730469 333.304688 158.765625 333.453125 159.808594 C 334.136719 164.253906 335.472656 167.027344 337.996094 170.667969 C 339.976562 173.621094 341.425781 176.792969 341.277344 180.414062 C 340.707031 182.5 339.171875 183.957031 337.589844 185.363281 C 337.109375 185.605469 337.109375 185.605469 336.617188 185.851562 C 336.652344 186.113281 336.691406 186.375 336.726562 186.644531 C 337.582031 192.875 338.261719 199.113281 338.796875 205.378906 C 338.859375 206.125 338.925781 206.875 338.992188 207.625 C 339.207031 210.089844 339.390625 212.554688 339.53125 215.027344 C 339.554688 215.394531 339.574219 215.757812 339.597656 216.132812 C 339.652344 217.207031 339.691406 218.28125 339.722656 219.359375 C 339.746094 219.988281 339.769531 220.617188 339.789062 221.265625 C 339.53125 222.808594 339.53125 222.808594 338.398438 223.757812 C 336.734375 224.414062 335.882812 224.324219 334.1875 223.78125 C 332.921875 222.769531 332.316406 222.195312 331.996094 220.589844 C 331.992188 220.121094 331.988281 219.652344 331.984375 219.167969 C 331.972656 218.636719 331.960938 218.109375 331.953125 217.5625 C 331.949219 216.996094 331.945312 216.433594 331.941406 215.847656 C 331.917969 214.664062 331.890625 213.476562 331.863281 212.292969 C 331.847656 211.695312 331.835938 211.097656 331.820312 210.480469 C 331.730469 207.804688 331.515625 205.144531 331.273438 202.476562 C 331.234375 202.019531 331.191406 201.5625 331.152344 201.089844 C 330.992188 199.351562 330.808594 197.640625 330.515625 195.917969 C 330.300781 194.582031 330.253906 193.339844 330.273438 191.992188 C 330.277344 191.566406 330.28125 191.140625 330.285156 190.703125 C 330.292969 190.386719 330.296875 190.066406 330.300781 189.742188 C 329.800781 189.710938 329.300781 189.679688 328.785156 189.648438 C 326.414062 189.152344 325.667969 188.542969 323.988281 186.824219 C 321.625 182.023438 323.140625 176.578125 324.71875 171.757812 C 325.484375 169.585938 326.539062 167.636719 327.703125 165.652344 C 329.78125 161.855469 330.226562 157.5 330.789062 153.269531 C 330.355469 153.273438 329.925781 153.28125 329.480469 153.285156 C 323.59375 153.328125 317.726562 153.074219 311.84375 152.785156 C 311.703125 168.175781 311.703125 168.175781 318.464844 181.503906 C 321.355469 185.089844 322.03125 188.667969 321.800781 193.210938 C 321.308594 197.03125 319.246094 199.277344 316.777344 202.09375 C 311.347656 208.339844 311.957031 215.296875 312.445312 223.199219 C 312.546875 224.367188 312.675781 225.535156 312.816406 226.699219 C 310.894531 226.699219 308.96875 226.699219 306.988281 226.699219 C 307 226.007812 307 226.007812 307.011719 225.304688 C 307.035156 223.574219 307.054688 221.839844 307.066406 220.109375 C 307.074219 219.363281 307.085938 218.621094 307.097656 217.875 C 307.238281 209.855469 307.238281 209.855469 303.40625 203.023438 C 303.019531 202.578125 302.636719 202.132812 302.238281 201.675781 C 301.882812 201.269531 301.527344 200.859375 301.160156 200.441406 C 297.980469 196.386719 297.246094 192.84375 297.617188 187.785156 C 298.140625 184.222656 300.59375 181.457031 302.917969 178.871094 C 307.226562 173.714844 307.210938 166.015625 307.320312 159.652344 C 307.339844 158.980469 307.355469 158.308594 307.371094 157.636719 C 307.410156 156.019531 307.445312 154.402344 307.472656 152.785156 C 306.960938 152.804688 306.960938 152.804688 306.4375 152.828125 C 298.84375 153.148438 291.273438 153.339844 283.671875 153.269531 C 283.671875 151.503906 283.671875 149.738281 283.671875 147.921875 C 284.277344 147.917969 284.882812 147.917969 285.503906 147.914062 C 291.226562 147.898438 296.953125 147.867188 302.675781 147.832031 C 305.617188 147.8125 308.558594 147.796875 311.5 147.789062 C 314.34375 147.78125 317.1875 147.765625 320.03125 147.742188 C 321.113281 147.734375 322.191406 147.730469 323.269531 147.730469 C 331.886719 147.722656 339.777344 142.765625 347.121094 142.511719 Z M 347.121094 142.511719 " fill-opacity="1" fill-rule="nonzero"/><path fill="#230f40" d="M 162.242188 154.242188 C 168.070312 154.242188 168.070312 154.242188 169.308594 155.167969 C 169.546875 155.597656 169.785156 156.027344 170.027344 156.46875 C 170.308594 156.949219 170.589844 157.429688 170.878906 157.921875 C 171.152344 158.441406 171.429688 158.964844 171.714844 159.5 C 172.335938 160.578125 172.953125 161.660156 173.574219 162.738281 C 174.027344 163.546875 174.027344 163.546875 174.484375 164.371094 C 175.703125 166.523438 177.027344 168.601562 178.363281 170.683594 C 181.25 175.253906 184.132812 179.824219 187.015625 184.390625 C 187.175781 174.441406 187.335938 164.492188 187.5 154.242188 C 189.261719 154.242188 191.027344 154.242188 192.84375 154.242188 C 192.84375 167.5625 192.84375 180.882812 192.84375 194.605469 C 190.757812 194.605469 188.675781 194.605469 186.527344 194.605469 C 186.238281 193.972656 185.949219 193.339844 185.648438 192.691406 C 184.300781 189.992188 182.699219 187.507812 181.050781 184.992188 C 178.996094 181.859375 177.003906 178.695312 175.023438 175.515625 C 174.730469 175.046875 174.433594 174.574219 174.132812 174.089844 C 171.9375 170.5625 169.761719 167.023438 167.585938 163.480469 C 167.425781 173.589844 167.265625 183.703125 167.101562 194.117188 C 165.496094 194.117188 163.894531 194.117188 162.242188 194.117188 C 162.242188 180.957031 162.242188 167.800781 162.242188 154.242188 Z M 162.242188 154.242188 " fill-opacity="1" fill-rule="nonzero"/><path fill="#241141" d="M 222.140625 165.921875 C 225.007812 168.042969 226.160156 170.761719 226.84375 174.179688 C 226.84375 176.105469 226.84375 178.03125 226.84375 180.015625 C 220.109375 180.015625 213.378906 180.015625 206.441406 180.015625 C 207.527344 185.535156 207.527344 185.535156 210.996094 189.4375 C 213.996094 190.761719 217.628906 190.789062 220.757812 189.878906 C 221.65625 189.515625 222.550781 189.144531 223.445312 188.769531 C 224.480469 188.894531 224.480469 188.894531 225.386719 189.253906 C 226.125 190.660156 226.359375 191.550781 226.359375 193.144531 C 221.335938 195.355469 215.617188 196.171875 210.265625 194.660156 C 206.609375 192.972656 203.925781 190.492188 202.375 186.761719 C 200.554688 181.800781 200.457031 176.644531 202.558594 171.75 C 204.457031 168.132812 206.664062 165.832031 210.449219 164.300781 C 214.867188 163.492188 218.136719 163.730469 222.140625 165.921875 Z M 222.140625 165.921875 " fill-opacity="1" fill-rule="nonzero"/><path fill="#241141" d="M 96.183594 166.398438 C 96.183594 166.71875 96.183594 167.042969 96.183594 167.371094 C 96.664062 167.53125 97.144531 167.691406 97.640625 167.859375 C 100.355469 171.976562 100.554688 174.898438 100.554688 180.015625 C 93.824219 180.015625 87.089844 180.015625 80.15625 180.015625 C 80.988281 185.308594 80.988281 185.308594 84.039062 189.253906 C 88.09375 191.347656 93.011719 190.375 97.179688 189.089844 C 97.492188 188.984375 97.804688 188.878906 98.125 188.769531 C 98.886719 190.136719 98.886719 190.136719 99.585938 191.6875 C 99.421875 192.167969 99.261719 192.648438 99.097656 193.144531 C 94.476562 195.417969 88.539062 196.089844 83.558594 194.679688 C 79.773438 192.980469 77.230469 190.175781 75.570312 186.398438 C 74.050781 181.621094 73.917969 176.007812 76.027344 171.414062 C 77.992188 168.078125 80.632812 165.359375 84.402344 164.183594 C 88.933594 163.296875 92.28125 163.980469 96.183594 166.398438 Z M 96.183594 166.398438 " fill-opacity="1" fill-rule="nonzero"/><path fill="#210e3f" d="M 14.097656 154.242188 C 21.949219 154.242188 29.804688 154.242188 37.898438 154.242188 C 37.898438 155.6875 37.898438 157.128906 37.898438 158.617188 C 31.644531 158.617188 25.394531 158.617188 18.953125 158.617188 C 18.953125 162.953125 18.953125 167.285156 18.953125 171.75 C 24.402344 171.75 29.855469 171.75 35.46875 171.75 C 35.46875 173.191406 35.46875 174.636719 35.46875 176.125 C 30.019531 176.125 24.570312 176.125 18.953125 176.125 C 18.953125 180.617188 18.953125 185.113281 18.953125 189.742188 C 25.367188 189.742188 31.777344 189.742188 38.382812 189.742188 C 38.382812 191.1875 38.382812 192.628906 38.382812 194.117188 C 30.367188 194.117188 22.355469 194.117188 14.097656 194.117188 C 14.097656 180.957031 14.097656 167.800781 14.097656 154.242188 Z M 14.097656 154.242188 " fill-opacity="1" fill-rule="nonzero"/><path fill="#210e3f" d="M 128.242188 165.914062 C 130.445312 167.628906 131.433594 169.570312 132.128906 172.234375 C 132.308594 173.960938 132.296875 175.667969 132.269531 177.402344 C 132.269531 177.882812 132.265625 178.363281 132.261719 178.855469 C 132.253906 180.378906 132.238281 181.898438 132.21875 183.417969 C 132.210938 184.457031 132.203125 185.492188 132.199219 186.527344 C 132.183594 189.058594 132.15625 191.589844 132.128906 194.117188 C 130.523438 194.117188 128.921875 194.117188 127.269531 194.117188 C 127.261719 193.535156 127.257812 192.949219 127.25 192.347656 C 127.21875 190.171875 127.183594 187.992188 127.144531 185.8125 C 127.125 184.871094 127.113281 183.933594 127.101562 182.992188 C 127.085938 181.636719 127.058594 180.277344 127.03125 178.921875 C 127.03125 178.503906 127.027344 178.089844 127.023438 177.660156 C 126.957031 174.90625 126.503906 172.796875 125.328125 170.289062 C 123.253906 169.132812 120.859375 168.902344 118.527344 169.316406 C 116.382812 170.164062 114.339844 171.078125 112.699219 172.722656 C 112.539062 173.683594 112.539062 173.683594 112.542969 174.796875 C 112.535156 175.222656 112.523438 175.652344 112.515625 176.09375 C 112.507812 176.789062 112.507812 176.789062 112.496094 177.496094 C 112.488281 177.96875 112.480469 178.445312 112.46875 178.933594 C 112.441406 180.449219 112.417969 181.964844 112.394531 183.480469 C 112.375 184.507812 112.359375 185.53125 112.339844 186.558594 C 112.292969 189.078125 112.25 191.597656 112.214844 194.117188 C 110.609375 194.117188 109.007812 194.117188 107.355469 194.117188 C 107.355469 184.488281 107.355469 174.859375 107.355469 164.941406 C 108.957031 164.941406 110.5625 164.941406 112.214844 164.941406 C 112.214844 165.902344 112.214844 166.867188 112.214844 167.859375 C 112.539062 167.652344 112.867188 167.449219 113.207031 167.238281 C 113.640625 166.972656 114.074219 166.703125 114.519531 166.429688 C 114.949219 166.164062 115.375 165.898438 115.816406 165.625 C 119.542969 163.585938 124.566406 163.835938 128.242188 165.914062 Z M 128.242188 165.914062 " fill-opacity="1" fill-rule="nonzero"/><path fill="#241142" d="M 252.101562 165.914062 C 252.101562 167.359375 252.101562 168.800781 252.101562 170.289062 C 249.382812 169.855469 249.382812 169.855469 248.242188 169.546875 C 247.207031 169.308594 246.308594 169.261719 245.246094 169.269531 C 244.699219 169.273438 244.699219 169.273438 244.136719 169.273438 C 243.761719 169.277344 243.382812 169.28125 242.992188 169.285156 C 242.609375 169.289062 242.222656 169.292969 241.828125 169.292969 C 240.878906 169.300781 239.933594 169.308594 238.988281 169.316406 C 238.410156 171.046875 238.371094 172.367188 238.5 174.179688 C 239.371094 175.527344 240.082031 175.671875 241.648438 176.105469 C 242.316406 176.246094 242.988281 176.382812 243.660156 176.519531 C 247.523438 177.398438 250.585938 178.570312 253.101562 181.777344 C 253.96875 184.898438 254.160156 188.003906 252.738281 190.957031 C 250.148438 193.761719 247.929688 194.886719 244.082031 195.253906 C 239.777344 195.300781 236.210938 194.667969 232.1875 193.144531 C 232.1875 191.539062 232.1875 189.9375 232.1875 188.28125 C 233.386719 188.648438 234.589844 189.011719 235.792969 189.375 C 236.203125 189.496094 236.617188 189.617188 237.042969 189.742188 C 237.347656 189.835938 237.648438 189.929688 237.960938 190.023438 C 239.441406 190.316406 240.878906 190.328125 242.386719 190.347656 C 243.273438 190.367188 243.273438 190.367188 244.179688 190.386719 C 245.898438 190.214844 246.597656 190.066406 247.730469 188.769531 C 247.964844 187.546875 247.964844 187.546875 247.851562 186.246094 C 247.824219 185.589844 247.824219 185.589844 247.796875 184.917969 C 247.777344 184.585938 247.753906 184.25 247.730469 183.90625 C 245.84375 182.804688 244.132812 182.269531 241.992188 181.808594 C 238.332031 180.941406 235.265625 179.324219 233.15625 176.125 C 232.414062 173.894531 232.242188 171.597656 232.988281 169.332031 C 234.238281 166.890625 236.28125 165.042969 238.894531 164.15625 C 243.589844 163.324219 247.800781 163.945312 252.101562 165.914062 Z M 252.101562 165.914062 " fill-opacity="1" fill-rule="nonzero"/><path fill="#231041" d="M 42.753906 164.941406 C 44.519531 164.941406 46.28125 164.941406 48.097656 164.941406 C 48.34375 165.628906 48.59375 166.320312 48.847656 167.03125 C 49.761719 169.582031 50.679688 172.128906 51.597656 174.679688 C 51.996094 175.785156 52.394531 176.890625 52.789062 177.996094 C 53.359375 179.578125 53.929688 181.164062 54.5 182.75 C 54.679688 183.246094 54.855469 183.742188 55.039062 184.257812 C 55.207031 184.714844 55.371094 185.171875 55.542969 185.644531 C 55.6875 186.046875 55.832031 186.453125 55.984375 186.871094 C 56.28125 187.785156 56.28125 187.785156 56.839844 188.28125 C 56.925781 188.019531 57.011719 187.753906 57.097656 187.484375 C 58.757812 182.367188 60.472656 177.292969 62.476562 172.296875 C 63.445312 169.871094 64.289062 167.425781 65.097656 164.941406 C 66.859375 164.941406 68.625 164.941406 70.441406 164.941406 C 69.105469 169.710938 67.65625 174.449219 65.5625 178.945312 C 65.035156 180.164062 64.625 181.394531 64.21875 182.660156 C 62.910156 186.710938 61.316406 190.648438 59.753906 194.605469 C 57.832031 194.605469 55.90625 194.605469 53.925781 194.605469 C 52.046875 190.535156 50.472656 186.359375 48.886719 182.171875 C 48.617188 181.460938 48.34375 180.75 48.074219 180.042969 C 47.40625 178.28125 46.738281 176.519531 46.074219 174.761719 C 45.65625 173.660156 45.238281 172.5625 44.816406 171.464844 C 44.550781 170.753906 44.28125 170.042969 44.011719 169.335938 C 43.882812 169.003906 43.757812 168.675781 43.628906 168.332031 C 42.753906 166.023438 42.753906 166.023438 42.753906 164.941406 Z M 42.753906 164.941406 " fill-opacity="1" fill-rule="nonzero"/><path fill="#210e3f" d="M 262.300781 155.214844 C 263.902344 155.214844 265.507812 155.214844 267.160156 155.214844 C 267.160156 158.585938 267.160156 161.953125 267.160156 165.425781 C 269.402344 165.425781 271.648438 165.425781 273.957031 165.425781 C 273.957031 166.871094 273.957031 168.316406 273.957031 169.804688 C 271.714844 169.804688 269.46875 169.804688 267.160156 169.804688 C 267.203125 172.410156 267.253906 175.011719 267.3125 177.617188 C 267.332031 178.503906 267.347656 179.390625 267.363281 180.277344 C 267.386719 181.550781 267.414062 182.824219 267.441406 184.097656 C 267.449219 184.496094 267.453125 184.890625 267.460938 185.300781 C 267.507812 187.179688 267.550781 188.140625 268.617188 189.742188 C 269.90625 190.023438 269.90625 190.023438 271.347656 190.074219 C 271.835938 190.109375 272.320312 190.140625 272.824219 190.171875 C 273.199219 190.191406 273.574219 190.207031 273.957031 190.226562 C 273.957031 191.671875 273.957031 193.117188 273.957031 194.605469 C 271.1875 195.53125 268.199219 195.460938 265.457031 194.484375 C 263.714844 193.261719 262.972656 192.242188 262.300781 190.226562 C 262.257812 189.546875 262.246094 188.867188 262.246094 188.1875 C 262.246094 187.777344 262.246094 187.371094 262.246094 186.949219 C 262.25 186.507812 262.25 186.070312 262.253906 185.617188 C 262.253906 185.167969 262.253906 184.714844 262.257812 184.25 C 262.257812 182.808594 262.265625 181.367188 262.269531 179.925781 C 262.273438 178.945312 262.277344 177.96875 262.277344 176.992188 C 262.28125 174.597656 262.292969 172.199219 262.300781 169.804688 C 261.019531 169.804688 259.738281 169.804688 258.414062 169.804688 C 258.414062 168.359375 258.414062 166.914062 258.414062 165.425781 C 259.699219 165.425781 260.980469 165.425781 262.300781 165.425781 C 262.300781 162.058594 262.300781 158.6875 262.300781 155.214844 Z M 262.300781 155.214844 " fill-opacity="1" fill-rule="nonzero"/><path fill="#210d3f" d="M 142.328125 155.214844 C 143.929688 155.214844 145.535156 155.214844 147.183594 155.214844 C 147.183594 158.585938 147.183594 161.953125 147.183594 165.425781 C 149.429688 165.425781 151.671875 165.425781 153.984375 165.425781 C 153.984375 166.871094 153.984375 168.316406 153.984375 169.804688 C 151.742188 169.804688 149.496094 169.804688 147.183594 169.804688 C 147.230469 172.332031 147.28125 174.855469 147.339844 177.382812 C 147.359375 178.242188 147.375 179.101562 147.390625 179.960938 C 147.410156 181.199219 147.441406 182.433594 147.46875 183.671875 C 147.476562 184.054688 147.480469 184.4375 147.488281 184.832031 C 147.523438 187.449219 147.523438 187.449219 148.640625 189.742188 C 149.929688 190.082031 149.929688 190.082031 151.375 190.105469 C 152.105469 190.148438 152.105469 190.148438 152.851562 190.191406 C 153.226562 190.203125 153.597656 190.214844 153.984375 190.226562 C 153.984375 191.671875 153.984375 193.117188 153.984375 194.605469 C 151.339844 195.488281 148.375 195.511719 145.757812 194.484375 C 144.023438 193.488281 143.121094 192.707031 142.539062 190.78125 C 142.324219 189.71875 142.269531 188.773438 142.273438 187.691406 C 142.273438 187.089844 142.273438 187.089844 142.273438 186.480469 C 142.273438 186.054688 142.277344 185.628906 142.28125 185.191406 C 142.28125 184.75 142.28125 184.308594 142.28125 183.855469 C 142.285156 182.457031 142.292969 181.054688 142.296875 179.652344 C 142.300781 178.699219 142.300781 177.746094 142.304688 176.796875 C 142.308594 174.464844 142.316406 172.132812 142.328125 169.804688 C 141.046875 169.804688 139.761719 169.804688 138.441406 169.804688 C 138.441406 168.359375 138.441406 166.914062 138.441406 165.425781 C 139.722656 165.425781 141.007812 165.425781 142.328125 165.425781 C 142.328125 162.058594 142.328125 158.6875 142.328125 155.214844 Z M 142.328125 155.214844 " fill-opacity="1" fill-rule="nonzero"/><path fill="#faf9fa" d="M 214.609375 168.679688 C 215.203125 168.660156 215.796875 168.644531 216.410156 168.625 C 218.378906 168.867188 219.132812 169.398438 220.53125 170.777344 C 221.757812 172.535156 221.5 173.25 221.5 175.640625 C 216.691406 175.640625 211.882812 175.640625 206.929688 175.640625 C 207.476562 172.347656 207.476562 172.347656 208.839844 170.867188 C 209.097656 170.582031 209.351562 170.300781 209.613281 170.007812 C 211.128906 168.546875 212.574219 168.71875 214.609375 168.679688 Z M 214.609375 168.679688 " fill-opacity="1" fill-rule="nonzero"/><path fill="#faf9fa" d="M 87.59375 168.710938 C 88.417969 168.691406 88.417969 168.691406 89.257812 168.671875 C 91.390625 168.886719 92.628906 169.667969 94.148438 171.140625 C 94.726562 172.234375 94.726562 172.234375 94.726562 175.640625 C 89.917969 175.640625 85.109375 175.640625 80.15625 175.640625 C 80.703125 172.347656 80.703125 172.347656 82.066406 170.867188 C 82.324219 170.582031 82.578125 170.300781 82.839844 170.007812 C 84.304688 168.59375 85.625 168.734375 87.59375 168.710938 Z M 87.59375 168.710938 " fill-opacity="1" fill-rule="nonzero"/><path fill="#fdf8f6" d="M 309.839844 179.257812 C 312.050781 179.65625 312.515625 180.628906 313.789062 182.445312 C 314.566406 184.003906 314.449219 185.617188 314.273438 187.308594 C 313.53125 189.277344 312.804688 190.746094 310.875 191.6875 C 309.417969 191.6875 309.417969 191.6875 307.960938 191.199219 C 305.898438 189.082031 305.386719 187.339844 305.421875 184.390625 C 305.582031 182.976562 306.128906 182.101562 306.988281 180.988281 C 307.304688 180.550781 307.304688 180.550781 307.625 180.105469 C 308.445312 179.53125 308.445312 179.53125 309.839844 179.257812 Z M 309.839844 179.257812 " fill-opacity="1" fill-rule="nonzero"/><path fill="#d26023" d="M 95.699219 205.300781 C 97.339844 206.492188 98.015625 207.195312 98.429688 209.191406 C 98.015625 211.191406 97.339844 211.894531 95.699219 213.082031 C 93.757812 213.390625 92.78125 213.414062 91.144531 212.292969 C 90.167969 210.863281 89.90625 209.953125 89.871094 208.21875 C 91.226562 205.304688 92.542969 204.980469 95.699219 205.300781 Z M 95.699219 205.300781 " fill-opacity="1" fill-rule="nonzero"/><path fill="#fdf8f5" d="M 331.0625 169.53125 C 332.246094 169.804688 332.246094 169.804688 333.125 170.5625 C 333.929688 172.214844 333.925781 173.335938 333.703125 175.152344 C 332.882812 176.582031 332.882812 176.582031 331.761719 177.585938 C 330.515625 177.886719 330.515625 177.886719 329.332031 177.585938 C 328.234375 176.296875 327.90625 175.367188 327.660156 173.695312 C 327.984375 171.488281 328.804688 170.027344 331.0625 169.53125 Z M 331.0625 169.53125 " fill-opacity="1" fill-rule="nonzero"/><path fill="#d4662b" d="M 131.640625 207.246094 C 134.960938 207.152344 134.960938 207.152344 136.011719 207.246094 C 136.984375 208.21875 136.984375 208.21875 137.105469 209.890625 C 136.984375 211.625 136.984375 211.625 136.011719 213.082031 C 134.738281 213.175781 134.738281 213.175781 133.585938 213.082031 C 133.585938 213.726562 133.585938 214.367188 133.585938 215.027344 C 132.945312 215.027344 132.300781 215.027344 131.640625 215.027344 C 131.640625 212.460938 131.640625 209.894531 131.640625 207.246094 Z M 131.640625 207.246094 " fill-opacity="1" fill-rule="nonzero"/><path fill="#d15d1f" d="M 231.214844 205.300781 C 235.40625 205.179688 235.40625 205.179688 237.042969 206.273438 C 237.195312 207.734375 237.195312 207.734375 237.042969 209.191406 C 236.074219 210.164062 236.074219 210.164062 234.554688 210.226562 C 234.09375 210.207031 233.632812 210.1875 233.15625 210.164062 C 233.15625 211.128906 233.15625 212.089844 233.15625 213.082031 C 232.515625 213.082031 231.875 213.082031 231.214844 213.082031 C 231.214844 210.515625 231.214844 207.949219 231.214844 205.300781 Z M 231.214844 205.300781 " fill-opacity="1" fill-rule="nonzero"/><path fill="#da7d4a" d="M 270.074219 207.246094 C 271.398438 207.265625 272.644531 207.523438 273.957031 207.734375 C 273.5625 209.164062 273.5625 209.164062 272.988281 210.652344 C 272.507812 210.8125 272.027344 210.972656 271.53125 211.136719 C 272.730469 211.621094 272.730469 211.621094 273.957031 212.109375 C 273.777344 213.296875 273.777344 213.296875 273.472656 214.542969 C 272.15625 215.199219 271.039062 215.058594 269.585938 215.027344 C 268.632812 213.445312 268.53125 212.414062 268.738281 210.589844 C 268.78125 210.167969 268.824219 209.746094 268.867188 209.3125 C 269.101562 208.21875 269.101562 208.21875 270.074219 207.246094 Z M 270.074219 207.246094 " fill-opacity="1" fill-rule="nonzero"/><path fill="#d4652a" d="M 200.613281 205.300781 C 202.378906 205.300781 204.140625 205.300781 205.957031 205.300781 C 205.957031 205.785156 205.957031 206.265625 205.957031 206.761719 C 204.835938 206.761719 203.714844 206.761719 202.558594 206.761719 C 202.558594 207.242188 202.558594 207.722656 202.558594 208.21875 C 203.359375 208.21875 204.160156 208.21875 204.984375 208.21875 C 204.984375 208.703125 204.984375 209.183594 204.984375 209.679688 C 204.183594 209.679688 203.382812 209.679688 202.558594 209.679688 C 202.558594 210.320312 202.558594 210.964844 202.558594 211.625 C 203.679688 211.625 204.800781 211.625 205.957031 211.625 C 205.957031 212.105469 205.957031 212.585938 205.957031 213.082031 C 204.195312 213.082031 202.429688 213.082031 200.613281 213.082031 C 200.613281 210.515625 200.613281 207.949219 200.613281 205.300781 Z M 200.613281 205.300781 " fill-opacity="1" fill-rule="nonzero"/><path fill="#d56930" d="M 191.871094 207.246094 C 191.871094 207.570312 191.871094 207.890625 191.871094 208.21875 C 192.191406 208.21875 192.511719 208.21875 192.84375 208.21875 C 193.488281 211.332031 193.488281 211.332031 192.8125 212.566406 C 191.449219 213.316406 190.484375 213.273438 188.957031 213.082031 C 188.046875 212.535156 188.046875 212.535156 187.5 211.625 C 187.289062 210.164062 187.289062 210.164062 187.5 208.707031 C 188.835938 207.21875 189.925781 207.085938 191.871094 207.246094 Z M 191.871094 207.246094 " fill-opacity="1" fill-rule="nonzero"/><path fill="#d56930" d="M 150.097656 207.246094 C 150.097656 207.570312 150.097656 207.890625 150.097656 208.21875 C 150.417969 208.21875 150.742188 208.21875 151.070312 208.21875 C 151.714844 211.332031 151.714844 211.332031 151.039062 212.566406 C 149.679688 213.316406 148.710938 213.273438 147.183594 213.082031 C 146.273438 212.535156 146.273438 212.535156 145.726562 211.625 C 145.515625 210.164062 145.515625 210.164062 145.726562 208.707031 C 147.066406 207.21875 148.15625 207.085938 150.097656 207.246094 Z M 150.097656 207.246094 " fill-opacity="1" fill-rule="nonzero"/><path fill="#d4662b" d="M 130.183594 207.734375 C 130.917969 209.199219 130.757812 210.496094 130.671875 212.109375 C 129.699219 213.082031 129.699219 213.082031 128 213.234375 C 127.15625 213.160156 127.15625 213.160156 126.300781 213.082031 C 125.175781 211.394531 125.121094 210.691406 125.328125 208.707031 C 126.464844 206.625 128.140625 207.242188 130.183594 207.734375 Z M 130.183594 207.734375 " fill-opacity="1" fill-rule="nonzero"/><path fill="#d4662b" d="M 173.898438 207.734375 C 174.632812 209.199219 174.472656 210.496094 174.386719 212.109375 C 173.414062 213.082031 173.414062 213.082031 171.714844 213.234375 C 170.871094 213.160156 170.871094 213.160156 170.015625 213.082031 C 168.890625 211.394531 168.835938 210.691406 169.042969 208.707031 C 170.183594 206.625 171.855469 207.242188 173.898438 207.734375 Z M 173.898438 207.734375 " fill-opacity="1" fill-rule="nonzero"/><path fill="#d26124" d="M 73.871094 207.339844 C 75.296875 207.734375 75.296875 207.734375 76.269531 208.707031 C 76.390625 210.410156 76.390625 210.410156 76.269531 212.109375 C 75.296875 213.082031 75.296875 213.082031 73.871094 213.234375 C 72.382812 213.082031 72.382812 213.082031 71.472656 212.535156 C 70.671875 211.195312 70.734375 210.238281 70.925781 208.707031 C 71.777344 207.242188 72.171875 207.234375 73.871094 207.339844 Z M 73.871094 207.339844 " fill-opacity="1" fill-rule="nonzero"/><path fill="#d4662b" d="M 117.859375 205.242188 C 118.671875 205.273438 118.671875 205.273438 119.5 205.300781 C 119.660156 205.785156 119.820312 206.265625 119.984375 206.761719 C 119.023438 206.761719 118.0625 206.761719 117.070312 206.761719 C 117.070312 207.242188 117.070312 207.722656 117.070312 208.21875 C 117.460938 208.289062 117.851562 208.359375 118.253906 208.433594 C 119.5 208.707031 119.5 208.707031 119.984375 209.191406 C 120.074219 210.621094 120.074219 210.621094 119.984375 212.109375 C 119.011719 213.082031 119.011719 213.082031 117.3125 213.175781 C 115.613281 213.082031 115.613281 213.082031 114.640625 212.597656 C 114.800781 212.117188 114.960938 211.632812 115.128906 211.136719 C 116.089844 211.136719 117.050781 211.136719 118.042969 211.136719 C 118.203125 210.816406 118.363281 210.496094 118.527344 210.164062 C 118.148438 210.105469 117.765625 210.046875 117.375 209.984375 C 116.097656 209.679688 116.097656 209.679688 115.128906 208.707031 C 115.003906 207.492188 115.003906 207.492188 115.128906 206.273438 C 116.097656 205.300781 116.097656 205.300781 117.859375 205.242188 Z M 117.859375 205.242188 " fill-opacity="1" fill-rule="nonzero"/><path fill="#d36327" d="M 144.269531 205.300781 C 144.429688 205.785156 144.589844 206.265625 144.757812 206.761719 C 143.792969 206.761719 142.832031 206.761719 141.84375 206.761719 C 142.839844 207.855469 143.300781 208.222656 144.757812 208.707031 C 145.402344 211.34375 145.402344 211.34375 144.726562 212.535156 C 143.398438 213.308594 142.378906 213.210938 140.871094 213.082031 C 140.550781 212.921875 140.230469 212.761719 139.898438 212.597656 C 139.898438 212.117188 139.898438 211.632812 139.898438 211.136719 C 141.019531 211.296875 142.144531 211.460938 143.300781 211.625 C 143.140625 211.144531 142.980469 210.660156 142.8125 210.164062 C 142.414062 210.035156 142.011719 209.90625 141.597656 209.769531 C 141.199219 209.578125 140.796875 209.390625 140.386719 209.191406 C 139.988281 207.671875 139.988281 207.671875 139.898438 206.273438 C 141.566406 205.160156 142.320312 205.214844 144.269531 205.300781 Z M 144.269531 205.300781 " fill-opacity="1" fill-rule="nonzero"/><path fill="#d66c33" d="M 175.355469 207.246094 C 178.675781 207.105469 178.675781 207.105469 179.726562 207.246094 C 180.765625 208.804688 180.8125 209.203125 180.761719 210.984375 C 180.75 211.378906 180.742188 211.773438 180.734375 212.175781 C 180.71875 212.625 180.71875 212.625 180.699219 213.082031 C 180.058594 213.082031 179.417969 213.082031 178.757812 213.082031 C 178.757812 211.640625 178.757812 210.195312 178.757812 208.707031 C 178.277344 208.707031 177.796875 208.707031 177.300781 208.707031 C 177.300781 210.152344 177.300781 211.59375 177.300781 213.082031 C 176.660156 213.082031 176.015625 213.082031 175.355469 213.082031 C 175.355469 211.15625 175.355469 209.230469 175.355469 207.246094 Z M 175.355469 207.246094 " fill-opacity="1" fill-rule="nonzero"/><path fill="#d76f38" d="M 77.242188 207.246094 C 77.882812 207.246094 78.523438 207.246094 79.183594 207.246094 C 79.183594 208.691406 79.183594 210.136719 79.183594 211.625 C 79.664062 211.625 80.144531 211.625 80.640625 211.625 C 80.640625 210.179688 80.640625 208.734375 80.640625 207.246094 C 81.28125 207.246094 81.921875 207.246094 82.582031 207.246094 C 82.582031 209.171875 82.582031 211.097656 82.582031 213.082031 C 79.261719 213.226562 79.261719 213.226562 78.210938 213.082031 C 77.175781 211.523438 77.128906 211.128906 77.179688 209.34375 C 77.1875 208.953125 77.199219 208.558594 77.207031 208.152344 C 77.21875 207.855469 77.230469 207.554688 77.242188 207.246094 Z M 77.242188 207.246094 " fill-opacity="1" fill-rule="nonzero"/><path fill="#d66f37" d="M 262.785156 207.246094 C 266.109375 207.105469 266.109375 207.105469 267.160156 207.246094 C 268.195312 208.804688 268.242188 209.203125 268.191406 210.984375 C 268.183594 211.378906 268.171875 211.773438 268.164062 212.175781 C 268.148438 212.625 268.148438 212.625 268.128906 213.082031 C 267.488281 213.082031 266.847656 213.082031 266.1875 213.082031 C 266.1875 211.640625 266.1875 210.195312 266.1875 208.707031 C 265.707031 208.707031 265.226562 208.707031 264.730469 208.707031 C 264.730469 210.152344 264.730469 211.59375 264.730469 213.082031 C 264.089844 213.082031 263.449219 213.082031 262.785156 213.082031 C 262.785156 211.15625 262.785156 209.230469 262.785156 207.246094 Z M 262.785156 207.246094 " fill-opacity="1" fill-rule="nonzero"/><path fill="#d8733d" d="M 109.785156 207.734375 C 109.945312 208.695312 110.105469 209.660156 110.269531 210.652344 C 109.148438 210.652344 108.027344 210.652344 106.871094 210.652344 C 106.871094 210.972656 106.871094 211.292969 106.871094 211.625 C 107.832031 211.625 108.792969 211.625 109.785156 211.625 C 109.785156 212.105469 109.785156 212.585938 109.785156 213.082031 C 108.175781 213.203125 108.175781 213.203125 106.382812 213.082031 C 105.214844 212.0625 104.972656 211.414062 104.714844 209.890625 C 104.925781 208.707031 104.925781 208.707031 105.714844 207.792969 C 107.242188 207.070312 108.175781 207.332031 109.785156 207.734375 Z M 109.785156 207.734375 " fill-opacity="1" fill-rule="nonzero"/><path fill="#d4662c" d="M 216.644531 207.734375 C 217.613281 208.707031 217.613281 208.707031 217.613281 210.652344 C 216.492188 210.652344 215.371094 210.652344 214.214844 210.652344 C 214.214844 210.972656 214.214844 211.292969 214.214844 211.625 C 215.175781 211.625 216.136719 211.625 217.128906 211.625 C 216.96875 212.105469 216.808594 212.585938 216.644531 213.082031 C 214.019531 213.257812 214.019531 213.257812 212.816406 212.535156 C 212.007812 211.179688 212.046875 210.253906 212.273438 208.707031 C 213.667969 207.101562 214.683594 207.0625 216.644531 207.734375 Z M 216.644531 207.734375 " fill-opacity="1" fill-rule="nonzero"/><path fill="#d36428" d="M 64.125 205.300781 C 65.699219 205.472656 66.367188 205.574219 67.433594 206.792969 C 67.625 207.101562 67.816406 207.414062 68.011719 207.734375 C 68.492188 206.933594 68.972656 206.128906 69.46875 205.300781 C 70.109375 205.464844 70.75 205.625 71.414062 205.789062 C 71.242188 206.03125 71.074219 206.273438 70.898438 206.519531 C 69.402344 208.757812 68.664062 210.390625 68.496094 213.082031 C 67.855469 213.082031 67.214844 213.082031 66.554688 213.082031 C 66.5 212.765625 66.449219 212.449219 66.394531 212.121094 C 65.941406 209.621094 65.414062 207.53125 64.125 205.300781 Z M 64.125 205.300781 " fill-opacity="1" fill-rule="nonzero"/><path fill="#d8743f" d="M 244.816406 207.246094 C 245.785156 208.21875 245.785156 208.21875 245.882812 209.378906 C 245.871094 209.820312 245.859375 210.257812 245.847656 210.710938 C 245.839844 211.15625 245.828125 211.597656 245.820312 212.054688 C 245.808594 212.394531 245.796875 212.734375 245.785156 213.082031 C 242.023438 213.144531 242.023438 213.144531 240.929688 212.597656 C 241.082031 211.683594 241.082031 211.683594 241.414062 210.652344 C 242.871094 209.679688 242.871094 209.679688 244.328125 209.679688 C 244.328125 209.359375 244.328125 209.039062 244.328125 208.707031 C 243.527344 208.867188 242.726562 209.027344 241.902344 209.191406 C 241.742188 208.710938 241.582031 208.230469 241.414062 207.734375 C 242.636719 207.125 243.464844 207.144531 244.816406 207.246094 Z M 244.816406 207.246094 " fill-opacity="1" fill-rule="nonzero"/><path fill="#d56930" d="M 218.585938 207.246094 C 222.160156 207.011719 222.160156 207.011719 223.445312 207.976562 C 224.148438 209.738281 224.023438 211.191406 223.929688 213.082031 C 223.289062 213.082031 222.648438 213.082031 221.988281 213.082031 C 221.988281 211.640625 221.988281 210.195312 221.988281 208.707031 C 221.503906 208.867188 221.023438 209.027344 220.527344 209.191406 C 220.367188 210.476562 220.207031 211.761719 220.042969 213.082031 C 219.5625 213.082031 219.082031 213.082031 218.585938 213.082031 C 218.585938 211.15625 218.585938 209.230469 218.585938 207.246094 Z M 218.585938 207.246094 " fill-opacity="1" fill-rule="nonzero"/><path fill="#d36428" d="M 253.558594 207.246094 C 256.5 207.152344 256.5 207.152344 257.445312 207.246094 C 258.414062 208.21875 258.414062 208.21875 258.511719 209.378906 C 258.5 209.820312 258.488281 210.257812 258.476562 210.710938 C 258.46875 211.15625 258.457031 211.597656 258.449219 212.054688 C 258.4375 212.394531 258.425781 212.734375 258.414062 213.082031 C 257.933594 213.082031 257.453125 213.082031 256.957031 213.082031 C 256.796875 211.800781 256.636719 210.515625 256.472656 209.191406 C 255.992188 209.03125 255.511719 208.871094 255.015625 208.707031 C 255.015625 210.152344 255.015625 211.59375 255.015625 213.082031 C 254.535156 213.082031 254.054688 213.082031 253.558594 213.082031 C 253.558594 211.15625 253.558594 209.230469 253.558594 207.246094 Z M 253.558594 207.246094 " fill-opacity="1" fill-rule="nonzero"/><path fill="#d15d1f" d="M 247.242188 207.246094 C 250.183594 207.152344 250.183594 207.152344 251.128906 207.246094 C 252.101562 208.21875 252.101562 208.21875 252.195312 209.378906 C 252.183594 209.820312 252.171875 210.257812 252.160156 210.710938 C 252.152344 211.15625 252.144531 211.597656 252.136719 212.054688 C 252.125 212.394531 252.113281 212.734375 252.101562 213.082031 C 251.621094 213.082031 251.140625 213.082031 250.644531 213.082031 C 250.644531 211.640625 250.644531 210.195312 250.644531 208.707031 C 250.164062 208.867188 249.683594 209.027344 249.1875 209.191406 C 249.027344 210.476562 248.867188 211.761719 248.699219 213.082031 C 248.21875 213.082031 247.738281 213.082031 247.242188 213.082031 C 247.242188 211.15625 247.242188 209.230469 247.242188 207.246094 Z M 247.242188 207.246094 " fill-opacity="1" fill-rule="nonzero"/><path fill="#d15d1e" d="M 99.097656 207.246094 C 102.039062 207.152344 102.039062 207.152344 102.984375 207.246094 C 103.957031 208.21875 103.957031 208.21875 104.050781 209.378906 C 104.039062 209.820312 104.027344 210.257812 104.015625 210.710938 C 104.007812 211.15625 104 211.597656 103.988281 212.054688 C 103.976562 212.394531 103.96875 212.734375 103.957031 213.082031 C 103.476562 213.082031 102.992188 213.082031 102.5 213.082031 C 102.5 211.640625 102.5 210.195312 102.5 208.707031 C 101.855469 208.707031 101.214844 208.707031 100.554688 208.707031 C 100.554688 210.152344 100.554688 211.59375 100.554688 213.082031 C 100.074219 213.082031 99.59375 213.082031 99.097656 213.082031 C 99.097656 211.15625 99.097656 209.230469 99.097656 207.246094 Z M 99.097656 207.246094 " fill-opacity="1" fill-rule="nonzero"/><path fill="#fcf6f2" d="M 94.300781 206.699219 C 94.761719 206.722656 95.222656 206.742188 95.699219 206.761719 C 96.371094 208.105469 96.277344 209.167969 96.183594 210.652344 C 95.210938 211.625 95.210938 211.625 94 211.777344 C 93.398438 211.703125 93.398438 211.703125 92.785156 211.625 C 91.738281 210.058594 91.625 209.550781 91.8125 207.734375 C 92.785156 206.761719 92.785156 206.761719 94.300781 206.699219 Z M 94.300781 206.699219 " fill-opacity="1" fill-rule="nonzero"/><path fill="#d66c33" d="M 206.441406 207.246094 C 207.355469 207.371094 207.355469 207.371094 208.386719 207.734375 C 208.992188 208.738281 208.992188 208.738281 209.359375 209.679688 C 209.679688 208.875 210 208.074219 210.328125 207.246094 C 210.96875 207.246094 211.609375 207.246094 212.273438 207.246094 C 212.050781 207.949219 211.828125 208.648438 211.605469 209.34375 C 211.480469 209.734375 211.355469 210.125 211.226562 210.523438 C 210.816406 211.625 210.816406 211.625 209.84375 213.082031 C 209.363281 213.082031 208.882812 213.082031 208.386719 213.082031 C 208.058594 212.386719 207.734375 211.6875 207.414062 210.984375 C 207.234375 210.597656 207.054688 210.207031 206.867188 209.804688 C 206.441406 208.707031 206.441406 208.707031 206.441406 207.246094 Z M 206.441406 207.246094 " fill-opacity="1" fill-rule="nonzero"/><path fill="#d7723b" d="M 121.925781 205.789062 C 122.410156 205.789062 122.890625 205.789062 123.382812 205.789062 C 123.382812 206.269531 123.382812 206.75 123.382812 207.246094 C 123.707031 207.246094 124.027344 207.246094 124.355469 207.246094 C 124.355469 207.730469 124.355469 208.210938 124.355469 208.707031 C 124.035156 208.707031 123.714844 208.707031 123.382812 208.707031 C 123.382812 209.667969 123.382812 210.632812 123.382812 211.625 C 123.707031 211.625 124.027344 211.625 124.355469 211.625 C 124.355469 212.105469 124.355469 212.585938 124.355469 213.082031 C 123.546875 213.105469 122.738281 213.101562 121.925781 213.082031 C 121.09375 212.246094 121.222656 211.125 121.109375 209.984375 C 121.054688 209.507812 121.003906 209.03125 120.949219 208.542969 C 120.957031 207.246094 120.957031 207.246094 121.925781 205.789062 Z M 121.925781 205.789062 " fill-opacity="1" fill-rule="nonzero"/><path fill="#d56930" d="M 187.015625 205.300781 C 187.015625 205.625 187.015625 205.945312 187.015625 206.273438 C 186.695312 206.273438 186.375 206.273438 186.042969 206.273438 C 186.042969 206.597656 186.042969 206.917969 186.042969 207.246094 C 186.363281 207.246094 186.683594 207.246094 187.015625 207.246094 C 187.015625 207.730469 187.015625 208.210938 187.015625 208.707031 C 186.695312 208.707031 186.375 208.707031 186.042969 208.707031 C 186.042969 210.152344 186.042969 211.59375 186.042969 213.082031 C 185.402344 213.082031 184.761719 213.082031 184.101562 213.082031 C 183.980469 212.152344 183.871094 211.21875 183.765625 210.289062 C 183.703125 209.769531 183.640625 209.25 183.578125 208.714844 C 183.613281 207.246094 183.613281 207.246094 184.210938 206.085938 C 185.070312 205.300781 185.070312 205.300781 187.015625 205.300781 Z M 187.015625 205.300781 " fill-opacity="1" fill-rule="nonzero"/><path fill="#d05717" d="M 155.441406 207.734375 C 155.921875 207.734375 156.402344 207.734375 156.898438 207.734375 C 157.058594 209.019531 157.21875 210.300781 157.386719 211.625 C 157.707031 211.625 158.027344 211.625 158.355469 211.625 C 158.515625 210.339844 158.675781 209.058594 158.84375 207.734375 C 159.324219 207.734375 159.804688 207.734375 160.300781 207.734375 C 160.300781 209.5 160.300781 211.265625 160.300781 213.082031 C 157.359375 213.179688 157.359375 213.179688 156.414062 213.082031 C 155.441406 212.109375 155.441406 212.109375 155.347656 211.058594 C 155.359375 210.664062 155.371094 210.269531 155.382812 209.863281 C 155.390625 209.464844 155.398438 209.066406 155.40625 208.65625 C 155.417969 208.351562 155.429688 208.046875 155.441406 207.734375 Z M 155.441406 207.734375 " fill-opacity="1" fill-rule="nonzero"/><path fill="#d7723c" d="M 131.640625 207.246094 C 132.84375 207.488281 132.84375 207.488281 134.070312 207.734375 C 134.230469 208.054688 134.390625 208.375 134.554688 208.707031 C 134.234375 208.707031 133.914062 208.707031 133.585938 208.707031 C 133.625 209 133.667969 209.292969 133.707031 209.59375 C 133.757812 209.984375 133.808594 210.371094 133.859375 210.773438 C 133.910156 211.15625 133.960938 211.539062 134.011719 211.9375 C 134.070312 213.085938 133.921875 213.933594 133.585938 215.027344 C 132.945312 215.027344 132.300781 215.027344 131.640625 215.027344 C 131.640625 212.460938 131.640625 209.894531 131.640625 207.246094 Z M 131.640625 207.246094 " fill-opacity="1" fill-rule="nonzero"/><path fill="#d66f38" d="M 238.015625 204.816406 C 238.65625 204.816406 239.296875 204.816406 239.957031 204.816406 C 239.957031 207.542969 239.957031 210.273438 239.957031 213.082031 C 239.316406 213.082031 238.675781 213.082031 238.015625 213.082031 C 238.015625 210.355469 238.015625 207.628906 238.015625 204.816406 Z M 238.015625 204.816406 " fill-opacity="1" fill-rule="nonzero"/><path fill="#d36428" d="M 225.871094 205.789062 C 226.191406 205.789062 226.511719 205.789062 226.84375 205.789062 C 226.84375 206.269531 226.84375 206.75 226.84375 207.246094 C 227.324219 207.246094 227.804688 207.246094 228.300781 207.246094 C 228.300781 207.730469 228.300781 208.210938 228.300781 208.707031 C 227.820312 208.707031 227.339844 208.707031 226.84375 208.707031 C 226.84375 209.667969 226.84375 210.632812 226.84375 211.625 C 227.324219 211.785156 227.804688 211.945312 228.300781 212.109375 C 228.140625 212.433594 227.980469 212.753906 227.816406 213.082031 C 227.011719 212.921875 226.210938 212.761719 225.386719 212.597656 C 225.386719 211.3125 225.386719 210.03125 225.386719 208.707031 C 225.066406 208.707031 224.746094 208.707031 224.414062 208.707031 C 224.414062 208.226562 224.414062 207.742188 224.414062 207.246094 C 224.734375 207.246094 225.054688 207.246094 225.386719 207.246094 C 225.546875 206.765625 225.707031 206.285156 225.871094 205.789062 Z M 225.871094 205.789062 " fill-opacity="1" fill-rule="nonzero"/><path fill="#d8733d" d="M 83.554688 207.246094 C 84.835938 207.246094 86.121094 207.246094 87.441406 207.246094 C 87.441406 207.890625 87.441406 208.53125 87.441406 209.191406 C 86.800781 209.191406 86.160156 209.191406 85.5 209.191406 C 85.5 210.476562 85.5 211.761719 85.5 213.082031 C 84.855469 213.082031 84.214844 213.082031 83.554688 213.082031 C 83.554688 211.15625 83.554688 209.230469 83.554688 207.246094 Z M 83.554688 207.246094 " fill-opacity="1" fill-rule="nonzero"/><path fill="#d26124" d="M 162.726562 205.789062 C 163.046875 205.789062 163.371094 205.789062 163.699219 205.789062 C 163.699219 206.269531 163.699219 206.75 163.699219 207.246094 C 164.179688 207.246094 164.660156 207.246094 165.15625 207.246094 C 165.15625 207.730469 165.15625 208.210938 165.15625 208.707031 C 164.675781 208.707031 164.195312 208.707031 163.699219 208.707031 C 163.917969 210.882812 163.917969 210.882812 165.15625 212.597656 C 164.351562 212.78125 163.542969 212.945312 162.726562 213.082031 C 162.242188 212.597656 162.242188 212.597656 162.195312 211.699219 C 162.210938 210.703125 162.226562 209.703125 162.242188 208.707031 C 161.921875 208.707031 161.601562 208.707031 161.269531 208.707031 C 161.269531 208.386719 161.269531 208.066406 161.269531 207.734375 C 161.589844 207.734375 161.910156 207.734375 162.242188 207.734375 C 162.402344 207.09375 162.5625 206.449219 162.726562 205.789062 Z M 162.726562 205.789062 " fill-opacity="1" fill-rule="nonzero"/><path fill="#d87540" d="M 166.128906 207.246094 C 166.769531 207.246094 167.410156 207.246094 168.070312 207.246094 C 168.070312 209.171875 168.070312 211.097656 168.070312 213.082031 C 167.429688 213.082031 166.789062 213.082031 166.128906 213.082031 C 166.128906 211.15625 166.128906 209.230469 166.128906 207.246094 Z M 166.128906 207.246094 " fill-opacity="1" fill-rule="nonzero"/><path fill="#d05716" d="M 152.527344 205.300781 C 153.007812 205.300781 153.488281 205.300781 153.984375 205.300781 C 153.984375 207.871094 153.984375 210.4375 153.984375 213.082031 C 153.503906 213.082031 153.023438 213.082031 152.527344 213.082031 C 152.527344 210.515625 152.527344 207.949219 152.527344 205.300781 Z M 152.527344 205.300781 " fill-opacity="1" fill-rule="nonzero"/><path fill="#d15c1d" d="M 197.699219 207.246094 C 197.699219 207.730469 197.699219 208.210938 197.699219 208.707031 C 197.058594 208.867188 196.417969 209.027344 195.757812 209.191406 C 195.757812 210.476562 195.757812 211.761719 195.757812 213.082031 C 195.277344 213.082031 194.796875 213.082031 194.300781 213.082031 C 194.300781 211.316406 194.300781 209.554688 194.300781 207.734375 C 196.730469 207.246094 196.730469 207.246094 197.699219 207.246094 Z M 197.699219 207.246094 " fill-opacity="1" fill-rule="nonzero"/><path fill="#d25e20" d="M 218.585938 207.246094 C 219.789062 207.488281 219.789062 207.488281 221.015625 207.734375 C 220.695312 209.5 220.375 211.265625 220.042969 213.082031 C 219.5625 213.082031 219.082031 213.082031 218.585938 213.082031 C 218.585938 211.15625 218.585938 209.230469 218.585938 207.246094 Z M 218.585938 207.246094 " fill-opacity="1" fill-rule="nonzero"/><path fill="#d05919" d="M 255.988281 207.734375 C 256.800781 207.875 257.609375 208.035156 258.414062 208.21875 C 258.414062 209.824219 258.414062 211.429688 258.414062 213.082031 C 257.933594 213.082031 257.453125 213.082031 256.957031 213.082031 C 256.863281 212.101562 256.769531 211.121094 256.671875 210.140625 C 256.539062 209.082031 256.539062 209.082031 255.5 208.21875 C 255.660156 208.058594 255.820312 207.898438 255.988281 207.734375 Z M 255.988281 207.734375 " fill-opacity="1" fill-rule="nonzero"/><path fill="#fbf2ec" d="M 124.355469 207.734375 C 124.675781 207.894531 124.996094 208.054688 125.328125 208.21875 C 125.527344 209.226562 125.527344 209.226562 125.632812 210.4375 C 125.667969 210.839844 125.703125 211.242188 125.742188 211.65625 C 125.765625 211.96875 125.789062 212.277344 125.8125 212.597656 C 125.332031 212.757812 124.851562 212.917969 124.355469 213.082031 C 124.355469 212.601562 124.355469 212.121094 124.355469 211.625 C 124.035156 211.625 123.714844 211.625 123.382812 211.625 C 123.382812 210.660156 123.382812 209.699219 123.382812 208.707031 C 123.707031 208.707031 124.027344 208.707031 124.355469 208.707031 C 124.355469 208.386719 124.355469 208.066406 124.355469 207.734375 Z M 124.355469 207.734375 " fill-opacity="1" fill-rule="nonzero"/><path fill="#d05716" d="M 259.871094 207.734375 C 260.355469 207.734375 260.835938 207.734375 261.328125 207.734375 C 261.328125 209.5 261.328125 211.265625 261.328125 213.082031 C 260.847656 213.082031 260.367188 213.082031 259.871094 213.082031 C 259.871094 211.316406 259.871094 209.554688 259.871094 207.734375 Z M 259.871094 207.734375 " fill-opacity="1" fill-rule="nonzero"/><path fill="#f8e7dd" d="M 72.871094 208.707031 C 73.871094 208.917969 73.871094 208.917969 74.8125 209.191406 C 74.8125 209.996094 74.8125 210.796875 74.8125 211.625 C 74.171875 211.785156 73.53125 211.945312 72.871094 212.109375 C 72.683594 211.140625 72.523438 210.167969 72.382812 209.191406 C 72.542969 209.03125 72.703125 208.871094 72.871094 208.707031 Z M 72.871094 208.707031 " fill-opacity="1" fill-rule="nonzero"/><path fill="#e09167" d="M 214.214844 207.246094 C 216.523438 207.613281 216.523438 207.613281 217.613281 208.707031 C 217.613281 209.1875 217.613281 209.667969 217.613281 210.164062 C 216.492188 210.003906 215.371094 209.84375 214.214844 209.679688 C 214.214844 209.359375 214.214844 209.039062 214.214844 208.707031 C 214.535156 208.546875 214.855469 208.386719 215.1875 208.21875 C 214.867188 207.898438 214.546875 207.578125 214.214844 207.246094 Z M 214.214844 207.246094 " fill-opacity="1" fill-rule="nonzero"/><path fill="#f9ede6" d="M 170.984375 208.707031 C 171.945312 208.949219 171.945312 208.949219 172.929688 209.191406 C 172.929688 209.996094 172.929688 210.796875 172.929688 211.625 C 172.125 211.464844 171.324219 211.304688 170.5 211.136719 C 170.660156 210.335938 170.820312 209.535156 170.984375 208.707031 Z M 170.984375 208.707031 " fill-opacity="1" fill-rule="nonzero"/><path fill="#f9ece4" d="M 127.269531 208.707031 C 128.230469 208.949219 128.230469 208.949219 129.214844 209.191406 C 129.214844 209.996094 129.214844 210.796875 129.214844 211.625 C 128.410156 211.464844 127.609375 211.304688 126.785156 211.136719 C 126.945312 210.335938 127.105469 209.535156 127.269531 208.707031 Z M 127.269531 208.707031 " fill-opacity="1" fill-rule="nonzero"/><path fill="#d36327" d="M 241.902344 210.164062 C 242.902344 210.378906 242.902344 210.378906 243.84375 210.652344 C 243.363281 211.375 243.363281 211.375 242.871094 212.109375 C 243.191406 212.109375 243.511719 212.109375 243.84375 212.109375 C 243.84375 212.433594 243.84375 212.753906 243.84375 213.082031 C 242.402344 212.84375 242.402344 212.84375 240.929688 212.597656 C 241.355469 210.710938 241.355469 210.710938 241.902344 210.164062 Z M 241.902344 210.164062 " fill-opacity="1" fill-rule="nonzero"/><path fill="#fbf1eb" d="M 189.441406 208.707031 C 190.085938 208.707031 190.726562 208.707031 191.386719 208.707031 C 191.386719 209.667969 191.386719 210.632812 191.386719 211.625 C 190.746094 211.625 190.101562 211.625 189.441406 211.625 C 189.441406 210.660156 189.441406 209.699219 189.441406 208.707031 Z M 189.441406 208.707031 " fill-opacity="1" fill-rule="nonzero"/><path fill="#fbf1eb" d="M 147.671875 208.707031 C 148.3125 208.707031 148.953125 208.707031 149.613281 208.707031 C 149.613281 209.667969 149.613281 210.632812 149.613281 211.625 C 148.972656 211.625 148.332031 211.625 147.671875 211.625 C 147.671875 210.660156 147.671875 209.699219 147.671875 208.707031 Z M 147.671875 208.707031 " fill-opacity="1" fill-rule="nonzero"/><path fill="#faefe9" d="M 133.585938 208.707031 C 134.226562 208.867188 134.867188 209.027344 135.527344 209.191406 C 135.527344 209.996094 135.527344 210.796875 135.527344 211.625 C 134.886719 211.625 134.246094 211.625 133.585938 211.625 C 133.585938 210.660156 133.585938 209.699219 133.585938 208.707031 Z M 133.585938 208.707031 " fill-opacity="1" fill-rule="nonzero"/><path fill="#d25e20" d="M 271.53125 207.734375 C 272.332031 207.734375 273.132812 207.734375 273.957031 207.734375 C 273.636719 208.695312 273.316406 209.660156 272.988281 210.652344 C 272.507812 210.652344 272.027344 210.652344 271.53125 210.652344 C 271.53125 209.6875 271.53125 208.726562 271.53125 207.734375 Z M 271.53125 207.734375 " fill-opacity="1" fill-rule="nonzero"/><path fill="#faede7" d="M 233.15625 206.761719 C 234.359375 207.003906 234.359375 207.003906 235.585938 207.246094 C 235.425781 207.890625 235.265625 208.53125 235.101562 209.191406 C 234.460938 209.191406 233.820312 209.191406 233.15625 209.191406 C 233.15625 208.390625 233.15625 207.589844 233.15625 206.761719 Z M 233.15625 206.761719 " fill-opacity="1" fill-rule="nonzero"/><path fill="#d36428" d="M 269.585938 212.597656 C 270.863281 213.234375 270.863281 213.234375 272.015625 214.054688 C 272.015625 214.375 272.015625 214.699219 272.015625 215.027344 C 271.214844 215.027344 270.414062 215.027344 269.585938 215.027344 C 269.265625 214.386719 268.945312 213.746094 268.617188 213.082031 C 268.9375 212.921875 269.257812 212.761719 269.585938 212.597656 Z M 269.585938 212.597656 " fill-opacity="1" fill-rule="nonzero"/><path fill="#d76f38" d="M 111.242188 209.191406 C 112.203125 209.191406 113.164062 209.191406 114.15625 209.191406 C 114.15625 209.675781 114.15625 210.15625 114.15625 210.652344 C 113.195312 210.652344 112.230469 210.652344 111.242188 210.652344 C 111.242188 210.171875 111.242188 209.6875 111.242188 209.191406 Z M 111.242188 209.191406 " fill-opacity="1" fill-rule="nonzero"/></svg>