<?xml version="1.0" encoding="UTF-8"?>
<svg version="1.1" xmlns="http://www.w3.org/2000/svg" width="772" height="315" >
<path d="M0 0 C254.76 0 509.52 0 772 0 C772 66.33 772 132.66 772 201 C517.24 201 262.48 201 0 201 C0 134.67 0 68.34 0 0 Z " fill="#FEFDFD" transform="translate(0,0)"/>
<path d="M0 0 C1.670625 0.061875 1.670625 0.061875 3.375 0.125 C0.19771289 3.51410625 -3.17846753 6.42271082 -6.8203125 9.3125 C-7.72023926 10.02792969 -8.62016602 10.74335938 -9.54736328 11.48046875 C-10.57579346 12.29451172 -10.57579346 12.29451172 -11.625 13.125 C-10.73417725 13.20540527 -9.84335449 13.28581055 -8.92553711 13.36865234 C-5.54248649 13.67554571 -2.15972227 13.98531272 1.22290039 14.296875 C2.67234344 14.42981918 4.12188477 14.5616972 5.5715332 14.69238281 C15.54645058 15.59258362 25.45756044 16.72045761 35.375 18.125 C35.189375 18.846875 35.00375 19.56875 34.8125 20.3125 C34.35504693 23.25326973 34.63983643 25.26603058 35.375 28.125 C19.49313878 27.20332453 3.61294349 26.27275813 -12.25 25.0625 C-13.8275708 24.94382568 -13.8275708 24.94382568 -15.43701172 24.82275391 C-20.53585457 24.42384493 -25.57297778 23.92454973 -30.625 23.125 C-30.1645412 25.14393475 -29.70231789 27.16247425 -29.234375 29.1796875 C-28.79650737 31.2960477 -28.44150571 33.43017714 -28.140625 35.5703125 C-26.72784368 44.7152078 -23.97773795 50.41600805 -18.7890625 57.90625 C-14.70903996 63.97473118 -11.72255045 70.49775441 -12.02734375 77.9453125 C-13.20428641 82.23769159 -16.36403146 85.2329193 -19.625 88.125 C-20.615 88.62 -20.615 88.62 -21.625 89.125 C-21.54983154 89.66350586 -21.47466309 90.20201172 -21.3972168 90.75683594 C-19.63807836 103.56942699 -18.24004248 116.39630684 -17.13809204 129.28039551 C-17.00638036 130.81989722 -16.87247818 132.3592134 -16.73617554 133.89831543 C-16.29023173 138.97022461 -15.9153186 144.04177222 -15.625 149.125 C-15.58034607 149.87394531 -15.53569214 150.62289062 -15.48968506 151.39453125 C-15.37210833 153.60684734 -15.29442485 155.81679949 -15.23046875 158.03125 C-15.1843042 159.32353516 -15.13813965 160.61582031 -15.09057617 161.94726562 C-15.625 165.125 -15.625 165.125 -17.95825195 167.07226562 C-21.38050242 168.42324466 -23.13402349 168.23914144 -26.625 167.125 C-29.23177484 165.04484933 -30.4765405 163.86638109 -31.13916016 160.55737305 C-31.14737793 159.59355713 -31.1555957 158.62974121 -31.1640625 157.63671875 C-31.18597656 156.54834717 -31.20789063 155.45997559 -31.23046875 154.33862305 C-31.23691406 153.17500244 -31.24335937 152.01138184 -31.25 150.8125 C-31.29995153 148.37489835 -31.35472798 145.93739131 -31.4140625 143.5 C-31.44274414 142.27023438 -31.47142578 141.04046875 -31.50097656 139.7734375 C-31.68810761 134.26854293 -32.12605884 128.79682181 -32.625 123.3125 C-32.70830566 122.37172607 -32.79161133 121.43095215 -32.87744141 120.46166992 C-33.20918357 116.88546325 -33.58407857 113.36680846 -34.18359375 109.82421875 C-34.6323421 107.08010271 -34.72502942 104.52717734 -34.6875 101.75 C-34.67847656 100.87601562 -34.66945313 100.00203125 -34.66015625 99.1015625 C-34.64855469 98.44929688 -34.63695312 97.79703125 -34.625 97.125 C-35.65625 97.063125 -36.6875 97.00125 -37.75 96.9375 C-42.63390873 95.91345462 -44.16623054 94.66420596 -47.625 91.125 C-52.49410164 81.25339668 -49.36814049 70.0535659 -46.125 60.14453125 C-44.54257181 55.67877655 -42.37024897 51.67138607 -39.9765625 47.58984375 C-35.69620063 39.78375027 -34.78419063 30.82574847 -33.625 22.125 C-34.51316406 22.13660156 -35.40132812 22.14820312 -36.31640625 22.16015625 C-48.44060775 22.24579642 -60.51725207 21.72338502 -72.625 21.125 C-72.91759025 52.77808231 -72.91759025 52.77808231 -59 80.1875 C-53.04274348 87.5556857 -51.65702443 94.91755087 -52.125 104.26171875 C-53.14145863 112.1154499 -57.38446052 116.73294613 -62.47363281 122.52416992 C-73.65301114 135.36903915 -72.39247359 149.67913656 -71.390625 165.92578125 C-71.17860433 168.32972147 -70.91111948 170.72874939 -70.625 173.125 C-74.585 173.125 -78.545 173.125 -82.625 173.125 C-82.60143433 171.70405029 -82.60143433 171.70405029 -82.57739258 170.25439453 C-82.52585499 166.69460427 -82.48845325 163.13521817 -82.46020508 159.57519531 C-82.44524256 158.04290457 -82.42486503 156.51065571 -82.39868164 154.97851562 C-82.10833739 138.49050046 -82.10833739 138.49050046 -90 124.4375 C-90.79277344 123.52355469 -91.58554687 122.60960937 -92.40234375 121.66796875 C-93.13582031 120.82878906 -93.86929688 119.98960937 -94.625 119.125 C-101.17104845 110.78938435 -102.68038657 103.5045609 -101.91503906 93.10498047 C-100.84206704 85.7802304 -95.78564224 80.09202635 -91.00390625 74.7734375 C-82.13163689 64.16692852 -82.1621678 48.33208496 -81.9375 35.25 C-81.90420401 33.86845991 -81.86970386 32.4869483 -81.83398438 31.10546875 C-81.75256065 27.77872805 -81.68307388 24.452216 -81.625 21.125 C-82.67905029 21.17043945 -82.67905029 21.17043945 -83.75439453 21.21679688 C-99.38810352 21.87762671 -114.97749602 22.26739387 -130.625 22.125 C-130.625 18.495 -130.625 14.865 -130.625 11.125 C-129.3804454 11.12135437 -128.13589081 11.11770874 -126.85362244 11.11395264 C-115.07050906 11.07685934 -103.28765356 11.01893115 -91.5047369 10.94109726 C-85.44837874 10.9017473 -79.39216326 10.8694978 -73.33569336 10.85400391 C-67.48051389 10.83875491 -61.62572704 10.80416415 -55.77072334 10.75669098 C-53.54749546 10.74196179 -51.3242115 10.7339639 -49.10093498 10.73311615 C-31.36196381 10.7195613 -15.12146304 0.52142976 0 0 Z " fill="#D15A1B" transform="translate(714.625,13.875)"/>
<path d="M0 0 C12 0 12 0 14.54882812 1.90161133 C15.03802734 2.7861499 15.52722656 3.67068848 16.03125 4.58203125 C16.60770264 5.56727783 17.18415527 6.55252441 17.77807617 7.56762695 C18.34631104 8.63843506 18.9145459 9.70924316 19.5 10.8125 C20.77652339 13.03172208 22.05387687 15.25046688 23.33203125 17.46875 C24.25943115 19.13164063 24.25943115 19.13164063 25.20556641 20.828125 C27.71213699 25.25878691 30.43704724 29.53104696 33.1875 33.8125 C39.12985901 43.20526102 45.0648513 52.60268122 51 62 C51.33 41.54 51.66 21.08 52 0 C55.63 0 59.26 0 63 0 C63 27.39 63 54.78 63 83 C58.71 83 54.42 83 50 83 C49.401875 81.700625 48.80375 80.40125 48.1875 79.0625 C45.41067886 73.5165926 42.118416 68.41085409 38.72021484 63.2355957 C34.49522044 56.79508941 30.38888548 50.28548161 26.3125 43.75 C25.70744629 42.7811084 25.10239258 41.8122168 24.47900391 40.81396484 C19.95641736 33.56043651 15.48011817 26.28019202 11 19 C10.67 39.79 10.34 60.58 10 82 C6.7 82 3.4 82 0 82 C0 54.94 0 27.88 0 0 Z " fill="#230F40" transform="translate(334,38)"/>
<path d="M0 0 C5.90262977 4.3624392 8.27390457 9.9515541 9.6796875 16.98046875 C9.6796875 20.94046875 9.6796875 24.90046875 9.6796875 28.98046875 C-4.1803125 28.98046875 -18.0403125 28.98046875 -32.3203125 28.98046875 C-30.09150989 40.33149718 -30.09150989 40.33149718 -22.9453125 48.35546875 C-16.7667836 51.07994921 -9.29048918 51.13451695 -2.84765625 49.26171875 C-0.99940825 48.51551021 0.84080092 47.74945768 2.6796875 46.98046875 C4.81640625 47.2421875 4.81640625 47.2421875 6.6796875 47.98046875 C8.20132849 50.87158663 8.6796875 52.69870287 8.6796875 55.98046875 C-1.66036578 60.52198235 -13.4339531 62.20558389 -24.44921875 59.09765625 C-31.97766517 55.62652523 -37.50402285 50.52596137 -40.6953125 42.85546875 C-44.44597991 32.6471305 -44.64489066 22.04405476 -40.3203125 11.98046875 C-36.40864412 4.54829883 -31.86553218 -0.18396176 -24.0703125 -3.33203125 C-14.97644688 -4.99923995 -8.24530282 -4.50814609 0 0 Z " fill="#241141" transform="translate(457.3203125,62.01953125)"/>
<path d="M0 0 C0 0.66 0 1.32 0 2 C0.99 2.33 1.98 2.66 3 3 C8.58795926 11.46660494 9 17.48026185 9 28 C-4.86 28 -18.72 28 -33 28 C-31.28549549 38.88083873 -31.28549549 38.88083873 -25 47 C-16.65438458 51.30650644 -6.52925538 49.30002734 2.05078125 46.65625 C2.69402344 46.4396875 3.33726562 46.223125 4 46 C5.5625 48.8125 5.5625 48.8125 7 52 C6.67 52.99 6.34 53.98 6 55 C-3.51433096 59.67123967 -15.73934438 61.0568698 -25.9921875 58.15234375 C-33.78572935 54.65827864 -39.01911865 48.89080013 -42.4375 41.125 C-45.5671241 31.29880032 -45.84320104 19.75836892 -41.5 10.3125 C-37.45036548 3.44903491 -32.0127255 -2.14088558 -24.2578125 -4.55859375 C-14.9268047 -6.38282192 -8.03554073 -4.97776859 0 0 Z " fill="#241141" transform="translate(198,63)"/>
<path d="M0 0 C16.17 0 32.34 0 49 0 C49 2.97 49 5.94 49 9 C36.13 9 23.26 9 10 9 C10 17.91 10 26.82 10 36 C21.22 36 32.44 36 44 36 C44 38.97 44 41.94 44 45 C32.78 45 21.56 45 10 45 C10 54.24 10 63.48 10 73 C23.2 73 36.4 73 50 73 C50 75.97 50 78.94 50 82 C33.5 82 17 82 0 82 C0 54.94 0 27.88 0 0 Z " fill="#210E3F" transform="translate(29,38)"/>
<path d="M0 0 C4.53738745 3.52907913 6.56892149 7.51959623 8 13 C8.37609043 16.55055542 8.35153797 20.05789633 8.29296875 23.625 C8.28872391 24.61250244 8.28447906 25.60000488 8.28010559 26.61743164 C8.26342646 29.74524177 8.22579435 32.8723874 8.1875 36 C8.17243925 38.13150106 8.15875329 40.2630123 8.14648438 42.39453125 C8.11355821 47.5966069 8.06185078 52.79819111 8 58 C4.7 58 1.4 58 -2 58 C-2.01458252 56.79988281 -2.02916504 55.59976563 -2.04418945 54.36328125 C-2.10245018 49.88268215 -2.17968033 45.40257107 -2.26245117 40.92236328 C-2.29557037 38.98852498 -2.32364224 37.05459304 -2.34643555 35.12060547 C-2.38022185 32.33000021 -2.4325483 29.54024309 -2.48828125 26.75 C-2.49467117 25.89446533 -2.5010611 25.03893066 -2.50764465 24.1574707 C-2.64435269 18.49245098 -3.5808447 14.15239285 -6 9 C-10.26504539 6.61950955 -15.19699003 6.14894034 -20 7 C-24.41164586 8.74007733 -28.6245065 10.6245065 -32 14 C-32.32956935 15.97760261 -32.32956935 15.97760261 -32.31884766 18.26611328 C-32.33871735 19.14687531 -32.35858704 20.02763733 -32.37905884 20.93508911 C-32.39638565 22.36327469 -32.39638565 22.36327469 -32.4140625 23.8203125 C-32.43342865 24.79410858 -32.4527948 25.76790466 -32.4727478 26.77120972 C-32.53264558 29.88905003 -32.57896971 33.00692706 -32.625 36.125 C-32.66317039 38.23569341 -32.70222156 40.34637108 -32.7421875 42.45703125 C-32.83835549 47.63789343 -32.92234872 52.81882853 -33 58 C-36.3 58 -39.6 58 -43 58 C-43 38.2 -43 18.4 -43 -2 C-39.7 -2 -36.4 -2 -33 -2 C-33 -0.02 -33 1.96 -33 4 C-32.32453125 3.57847656 -31.6490625 3.15695313 -30.953125 2.72265625 C-30.06109375 2.17480469 -29.1690625 1.62695312 -28.25 1.0625 C-27.36828125 0.51722656 -26.4865625 -0.02804688 -25.578125 -0.58984375 C-17.90512291 -4.78674338 -7.56363401 -4.27285019 0 0 Z " fill="#210E3F" transform="translate(264,62)"/>
<path d="M0 0 C0 2.97 0 5.94 0 9 C-5.59680356 8.10959943 -5.59680356 8.10959943 -7.94628906 7.47094727 C-10.07612132 6.98254422 -11.92767154 6.88581569 -14.109375 6.90234375 C-15.24052734 6.90717773 -15.24052734 6.90717773 -16.39453125 6.91210938 C-17.17183594 6.92048828 -17.94914062 6.92886719 -18.75 6.9375 C-19.54277344 6.94201172 -20.33554687 6.94652344 -21.15234375 6.95117188 C-23.10159508 6.96291435 -25.05080738 6.98084854 -27 7 C-28.1845131 10.55353929 -28.26641894 13.27013478 -28 17 C-26.20864663 19.76784299 -24.74794961 20.06938466 -21.5234375 20.95703125 C-20.14152883 21.24653586 -18.7586593 21.53148142 -17.375 21.8125 C-9.42647043 23.62211017 -3.12208909 26.02643207 2.0625 32.625 C3.84527688 39.04299677 4.23980277 45.42855723 1.3125 51.5 C-4.02233498 57.26738917 -8.59052263 59.57771152 -16.5078125 60.3359375 C-25.36825307 60.4316226 -32.71094465 59.13111028 -41 56 C-41 52.7 -41 49.4 -41 46 C-38.52604167 46.74869792 -36.05208333 47.49739583 -33.578125 48.24609375 C-32.72734375 48.49488281 -31.8765625 48.74367187 -31 49 C-30.37609375 49.19207031 -29.7521875 49.38414063 -29.109375 49.58203125 C-26.06392109 50.1854823 -23.10181966 50.21057009 -20 50.25 C-18.1746875 50.28867188 -18.1746875 50.28867188 -16.3125 50.328125 C-12.77279702 49.97749404 -11.33139477 49.67187074 -9 47 C-8.51738333 44.49119384 -8.51738333 44.49119384 -8.75 41.8125 C-8.80414063 40.46091797 -8.80414063 40.46091797 -8.859375 39.08203125 C-8.90578125 38.39496094 -8.9521875 37.70789063 -9 37 C-12.885492 34.733463 -16.40530538 33.63310498 -20.8125 32.6875 C-28.35029772 30.90617964 -34.66112626 27.5791231 -39 21 C-40.53000855 16.40997435 -40.88564272 11.68893935 -39.3515625 7.03125 C-36.77584823 2.01190938 -32.5725618 -1.78856976 -27.19140625 -3.61328125 C-17.52090863 -5.31983965 -8.85687544 -4.04885735 0 0 Z " fill="#241142" transform="translate(519,62)"/>
<path d="M0 0 C3.63 0 7.26 0 11 0 C11.50974365 1.41853271 12.0194873 2.83706543 12.54467773 4.29858398 C14.42969777 9.54195847 16.31840505 14.78399827 18.20825195 20.02563477 C19.0269741 22.29805622 19.84468452 24.57084244 20.66137695 26.84399414 C21.83281357 30.10398361 23.00783634 33.36266055 24.18359375 36.62109375 C24.55028671 37.64400009 24.91697968 38.66690643 25.29478455 39.72080994 C25.6350618 40.66170975 25.97533905 41.60260956 26.32592773 42.57202148 C26.6257103 43.40475082 26.92549286 44.23748016 27.23435974 45.09544373 C27.84600347 46.97678063 27.84600347 46.97678063 29 48 C29.17539307 47.45811035 29.35078613 46.9162207 29.53149414 46.35791016 C32.95128192 35.8359975 36.48020744 25.397772 40.60180664 15.12744141 C42.59742742 10.14046885 44.33727576 5.10836964 46 0 C49.63 0 53.26 0 57 0 C54.25030958 9.81311535 51.2681218 19.55045329 46.953125 28.796875 C45.86820818 31.30463356 45.02593914 33.83691759 44.1875 36.4375 C41.49818611 44.76465265 38.21736006 52.86622457 35 61 C31.04 61 27.08 61 23 61 C19.13362742 52.63543299 15.89262911 44.04745828 12.625 35.4375 C12.06792549 33.97582868 11.510635 32.51423965 10.953125 31.05273438 C9.57411302 27.43495978 8.20168899 23.81472909 6.83166504 20.19354248 C5.97440249 17.93248577 5.11187445 15.67348006 4.24902344 13.41455078 C3.69450374 11.95481251 3.14013594 10.49501652 2.5859375 9.03515625 C2.32535553 8.35617783 2.06477356 7.6771994 1.79629517 6.97764587 C0 2.22723489 0 2.22723489 0 0 Z " fill="#231041" transform="translate(88,60)"/>
<path d="M0 0 C3.3 0 6.6 0 10 0 C10 6.93 10 13.86 10 21 C14.62 21 19.24 21 24 21 C24 23.97 24 26.94 24 30 C19.38 30 14.76 30 10 30 C10.09351182 35.35716279 10.19960044 40.71387239 10.31738281 46.07055664 C10.35567995 47.89307824 10.39053155 49.71567563 10.421875 51.53833008 C10.46750979 54.15733941 10.52550622 56.77582674 10.5859375 59.39453125 C10.59748871 60.21025101 10.60903992 61.02597076 10.62094116 61.8664093 C10.72197274 65.73364504 10.8077319 67.71159785 13 71 C15.6556728 71.58348752 15.6556728 71.58348752 18.625 71.6875 C19.62789062 71.75324219 20.63078125 71.81898437 21.6640625 71.88671875 C22.43492187 71.92410156 23.20578125 71.96148437 24 72 C24 74.97 24 77.94 24 81 C18.29233892 82.90255369 12.14370909 82.76561039 6.5 80.75 C2.9083059 78.23581413 1.37990114 76.13970343 0 72 C-0.08589303 70.60344541 -0.11772715 69.20314223 -0.11352539 67.80395508 C-0.11344986 66.96331009 -0.11337433 66.1226651 -0.11329651 65.25654602 C-0.10813522 64.35333115 -0.10297394 63.45011627 -0.09765625 62.51953125 C-0.0962413 61.59154221 -0.09482635 60.66355316 -0.09336853 59.70744324 C-0.08776937 56.74242942 -0.07521704 53.77749101 -0.0625 50.8125 C-0.05748489 48.80273547 -0.052922 46.79296975 -0.04882812 44.78320312 C-0.03780021 39.85543968 -0.02053617 34.92773263 0 30 C-2.64 30 -5.28 30 -8 30 C-8 27.03 -8 24.06 -8 21 C-5.36 21 -2.72 21 0 21 C0 14.07 0 7.14 0 0 Z " fill="#210E3F" transform="translate(540,40)"/>
<path d="M0 0 C3.3 0 6.6 0 10 0 C10 6.93 10 13.86 10 21 C14.62 21 19.24 21 24 21 C24 23.97 24 26.94 24 30 C19.38 30 14.76 30 10 30 C10.09363645 35.19644229 10.19975311 40.39242426 10.31738281 45.58837891 C10.35563771 47.3555607 10.3904967 49.12281944 10.421875 50.89013672 C10.46760152 53.43224563 10.52558289 55.97382648 10.5859375 58.515625 C10.59748871 59.30430969 10.60903992 60.09299438 10.62094116 60.90557861 C10.69944676 66.28921058 10.69944676 66.28921058 13 71 C15.64787088 71.70373017 15.64787088 71.70373017 18.625 71.75 C20.12933594 71.83507812 20.12933594 71.83507812 21.6640625 71.921875 C22.43492187 71.94765625 23.20578125 71.9734375 24 72 C24 74.97 24 77.94 24 81 C18.55596792 82.81467736 12.4480203 82.86286937 7.0625 80.75 C3.48943397 78.70824798 1.6329683 77.0963013 0.43678284 73.13470459 C-0.00981792 70.95201654 -0.12039497 69.00797091 -0.11352539 66.78222656 C-0.11341209 65.5514035 -0.11341209 65.5514035 -0.11329651 64.29571533 C-0.10813522 63.41953552 -0.10297394 62.54335571 -0.09765625 61.640625 C-0.0962413 60.73624695 -0.09482635 59.8318689 -0.09336853 58.90008545 C-0.08777911 56.01668973 -0.07522853 53.13337218 -0.0625 50.25 C-0.05748363 48.29296987 -0.05292096 46.33593853 -0.04882812 44.37890625 C-0.03781313 39.58590747 -0.02055574 34.79296698 0 30 C-2.64 30 -5.28 30 -8 30 C-8 27.03 -8 24.06 -8 21 C-5.36 21 -2.72 21 0 21 C0 14.07 0 7.14 0 0 Z " fill="#210D3F" transform="translate(293,40)"/>
<path d="M0 0 C1.22332031 -0.03738281 2.44664062 -0.07476562 3.70703125 -0.11328125 C7.76336866 0.38294858 9.31052195 1.48294467 12.1875 4.3125 C14.71852666 7.92825236 14.1875 9.39803796 14.1875 14.3125 C4.2875 14.3125 -5.6125 14.3125 -15.8125 14.3125 C-14.68420562 7.54273371 -14.68420562 7.54273371 -11.875 4.5 C-11.35035156 3.91605469 -10.82570313 3.33210938 -10.28515625 2.73046875 C-7.16951298 -0.26947424 -4.18713618 0.08330428 0 0 Z " fill="#FAF9FA" transform="translate(441.8125,67.6875)"/>
<path d="M0 0 C1.69576172 -0.03867188 1.69576172 -0.03867188 3.42578125 -0.078125 C7.8176866 0.36369542 10.36691473 1.97495216 13.5 5 C14.6875 7.25 14.6875 7.25 14.6875 14.25 C4.7875 14.25 -5.1125 14.25 -15.3125 14.25 C-14.18420562 7.48023371 -14.18420562 7.48023371 -11.375 4.4375 C-10.85035156 3.85355469 -10.32570312 3.26960938 -9.78515625 2.66796875 C-6.7704398 -0.23479536 -4.05537615 0.0551127 0 0 Z " fill="#FAF9FA" transform="translate(180.3125,67.75)"/>
<path d="M0 0 C4.55070879 0.81912758 5.50819856 2.82421223 8.125 6.5625 C9.72484287 9.76218574 9.4879489 13.08207927 9.125 16.5625 C7.59875797 20.60704139 6.10157934 23.63101861 2.125 25.5625 C-0.875 25.5625 -0.875 25.5625 -3.875 24.5625 C-8.11729032 20.20555318 -9.17552926 16.62156409 -9.09765625 10.55859375 C-8.77329035 7.65068191 -7.64364298 5.85518534 -5.875 3.5625 C-5.2253125 2.6653125 -5.2253125 2.6653125 -4.5625 1.75 C-2.875 0.5625 -2.875 0.5625 0 0 Z " fill="#FDF8F6" transform="translate(637.875,89.4375)"/>
<path d="M0 0 C3.38121991 2.44598887 4.76936783 3.89296559 5.625 8 C4.76936783 12.10703441 3.38121991 13.55401113 0 16 C-3.99807408 16.63127485 -6.00735985 16.67917484 -9.375 14.375 C-11.38506043 11.43721938 -11.92733979 9.5603504 -12 6 C-9.20268456 0.00575263 -6.49372018 -0.66037832 0 0 Z " fill="#D26023" transform="translate(197,143)"/>
<path d="M0 0 C2.4375 0.5625 2.4375 0.5625 4.25 2.125 C5.90378654 5.51961448 5.89617983 7.82753568 5.4375 11.5625 C3.75 14.5 3.75 14.5 1.4375 16.5625 C-1.125 17.1875 -1.125 17.1875 -3.5625 16.5625 C-5.82156051 13.9139463 -6.49865418 12.00029993 -7 8.5625 C-6.33875063 4.02821861 -4.64594174 1.01984087 0 0 Z " fill="#FDF8F5" transform="translate(681.5625,69.4375)"/>
<path d="M0 0 C6.8359375 -0.1953125 6.8359375 -0.1953125 9 0 C11 2 11 2 11.25 5.4375 C11 9 11 9 9 12 C6.375 12.1875 6.375 12.1875 4 12 C4 13.32 4 14.64 4 16 C2.68 16 1.36 16 0 16 C0 10.72 0 5.44 0 0 Z " fill="#D4662B" transform="translate(271,147)"/>
<path d="M0 0 C8.625 -0.25 8.625 -0.25 12 2 C12.3125 5 12.3125 5 12 8 C10 10 10 10 6.875 10.125 C5.92625 10.08375 4.9775 10.0425 4 10 C4 11.98 4 13.96 4 16 C2.68 16 1.36 16 0 16 C0 10.72 0 5.44 0 0 Z " fill="#D15D1F" transform="translate(476,143)"/>
<path d="M0 0 C2.72869407 0.03287583 5.2966618 0.56397771 8 1 C7.1875 3.9375 7.1875 3.9375 6 7 C5.01 7.33 4.02 7.66 3 8 C5.475 8.99 5.475 8.99 8 10 C7.625 12.4375 7.625 12.4375 7 15 C4.29120665 16.35439668 1.99066732 16.06501451 -1 16 C-2.96695476 12.74695944 -3.17567936 10.62769961 -2.75 6.875 C-2.66234375 6.00617188 -2.5746875 5.13734375 -2.484375 4.2421875 C-2 2 -2 2 0 0 Z " fill="#DA7D4A" transform="translate(556,147)"/>
<path d="M0 0 C3.63 0 7.26 0 11 0 C11 0.99 11 1.98 11 3 C8.69 3 6.38 3 4 3 C4 3.99 4 4.98 4 6 C5.65 6 7.3 6 9 6 C9 6.99 9 7.98 9 9 C7.35 9 5.7 9 4 9 C4 10.32 4 11.64 4 13 C6.31 13 8.62 13 11 13 C11 13.99 11 14.98 11 16 C7.37 16 3.74 16 0 16 C0 10.72 0 5.44 0 0 Z " fill="#D4652A" transform="translate(413,143)"/>
<path d="M0 0 C0 0.66 0 1.32 0 2 C0.66 2 1.32 2 2 2 C3.32850242 8.40096618 3.32850242 8.40096618 1.9375 10.9375 C-0.86718329 12.47555213 -2.85514075 12.39310741 -6 12 C-7.875 10.875 -7.875 10.875 -9 9 C-9.4375 6 -9.4375 6 -9 3 C-6.24653799 -0.05940224 -4.00406942 -0.33367245 0 0 Z " fill="#D56930" transform="translate(395,147)"/>
<path d="M0 0 C0 0.66 0 1.32 0 2 C0.66 2 1.32 2 2 2 C3.32850242 8.40096618 3.32850242 8.40096618 1.9375 10.9375 C-0.86718329 12.47555213 -2.85514075 12.39310741 -6 12 C-7.875 10.875 -7.875 10.875 -9 9 C-9.4375 6 -9.4375 6 -9 3 C-6.24653799 -0.05940224 -4.00406942 -0.33367245 0 0 Z " fill="#D56930" transform="translate(309,147)"/>
<path d="M0 0 C1.50662097 3.01324195 1.17770373 5.68286377 1 9 C-1 11 -1 11 -4.5 11.3125 C-6.2325 11.1578125 -6.2325 11.1578125 -8 11 C-10.31282587 7.53076119 -10.42478586 6.07794425 -10 2 C-7.65446208 -2.27715738 -4.20919664 -1.01332512 0 0 Z " fill="#D4662B" transform="translate(268,148)"/>
<path d="M0 0 C1.50662097 3.01324195 1.17770373 5.68286377 1 9 C-1 11 -1 11 -4.5 11.3125 C-6.2325 11.1578125 -6.2325 11.1578125 -8 11 C-10.31282587 7.53076119 -10.42478586 6.07794425 -10 2 C-7.65446208 -2.27715738 -4.20919664 -1.01332512 0 0 Z " fill="#D4662B" transform="translate(358,148)"/>
<path d="M0 0 C2.9375 0.8125 2.9375 0.8125 4.9375 2.8125 C5.1875 6.3125 5.1875 6.3125 4.9375 9.8125 C2.9375 11.8125 2.9375 11.8125 0 12.125 C-3.0625 11.8125 -3.0625 11.8125 -4.9375 10.6875 C-6.59104531 7.93159116 -6.45615568 5.96174548 -6.0625 2.8125 C-4.31169972 -0.20276715 -3.50175349 -0.21439307 0 0 Z " fill="#D26124" transform="translate(152.0625,147.1875)"/>
<path d="M0 0 C1.670625 0.061875 1.670625 0.061875 3.375 0.125 C3.705 1.115 4.035 2.105 4.375 3.125 C2.395 3.125 0.415 3.125 -1.625 3.125 C-1.625 4.115 -1.625 5.105 -1.625 6.125 C-0.820625 6.269375 -0.01625 6.41375 0.8125 6.5625 C3.375 7.125 3.375 7.125 4.375 8.125 C4.5625 11.0625 4.5625 11.0625 4.375 14.125 C2.375 16.125 2.375 16.125 -1.125 16.3125 C-4.625 16.125 -4.625 16.125 -6.625 15.125 C-6.295 14.135 -5.965 13.145 -5.625 12.125 C-3.645 12.125 -1.665 12.125 0.375 12.125 C0.705 11.465 1.035 10.805 1.375 10.125 C0.59125 10.00125 -0.1925 9.8775 -1 9.75 C-3.625 9.125 -3.625 9.125 -5.625 7.125 C-5.875 4.625 -5.875 4.625 -5.625 2.125 C-3.625 0.125 -3.625 0.125 0 0 Z " fill="#D4662B" transform="translate(242.625,142.875)"/>
<path d="M0 0 C0.33 0.99 0.66 1.98 1 3 C-0.98 3 -2.96 3 -5 3 C-2.94766315 5.2477975 -1.99332739 6.0022242 1 7 C2.3260274 12.42465753 2.3260274 12.42465753 0.9375 14.875 C-1.79635957 16.46240233 -3.89439827 16.26430653 -7 16 C-7.66 15.67 -8.32 15.34 -9 15 C-9 14.01 -9 13.02 -9 12 C-6.69 12.33 -4.38 12.66 -2 13 C-2.33 12.01 -2.66 11.02 -3 10 C-3.825 9.731875 -4.65 9.46375 -5.5 9.1875 C-6.325 8.795625 -7.15 8.40375 -8 8 C-8.8125 4.875 -8.8125 4.875 -9 2 C-5.5647952 -0.29013653 -4.014669 -0.17842973 0 0 Z " fill="#D36327" transform="translate(297,143)"/>
<path d="M0 0 C6.8359375 -0.29296875 6.8359375 -0.29296875 9 0 C11.13586678 3.20380017 11.23132175 4.01939967 11.125 7.6875 C11.10695313 8.49574219 11.08890625 9.30398437 11.0703125 10.13671875 C11.03550781 11.05904297 11.03550781 11.05904297 11 12 C9.68 12 8.36 12 7 12 C7 9.03 7 6.06 7 3 C6.01 3 5.02 3 4 3 C4 5.97 4 8.94 4 12 C2.68 12 1.36 12 0 12 C0 8.04 0 4.08 0 0 Z " fill="#D66C33" transform="translate(361,147)"/>
<path d="M0 0 C1.32 0 2.64 0 4 0 C4 2.97 4 5.94 4 9 C4.99 9 5.98 9 7 9 C7 6.03 7 3.06 7 0 C8.32 0 9.64 0 11 0 C11 3.96 11 7.92 11 12 C4.1640625 12.29296875 4.1640625 12.29296875 2 12 C-0.13586678 8.79619983 -0.23132175 7.98060033 -0.125 4.3125 C-0.10695312 3.50425781 -0.08890625 2.69601563 -0.0703125 1.86328125 C-0.04710937 1.24839844 -0.02390625 0.63351563 0 0 Z " fill="#D76F38" transform="translate(159,147)"/>
<path d="M0 0 C6.8359375 -0.29296875 6.8359375 -0.29296875 9 0 C11.13586678 3.20380017 11.23132175 4.01939967 11.125 7.6875 C11.10695313 8.49574219 11.08890625 9.30398437 11.0703125 10.13671875 C11.03550781 11.05904297 11.03550781 11.05904297 11 12 C9.68 12 8.36 12 7 12 C7 9.03 7 6.06 7 3 C6.01 3 5.02 3 4 3 C4 5.97 4 8.94 4 12 C2.68 12 1.36 12 0 12 C0 8.04 0 4.08 0 0 Z " fill="#D66F37" transform="translate(541,147)"/>
<path d="M0 0 C0.33 1.98 0.66 3.96 1 6 C-1.31 6 -3.62 6 -6 6 C-6 6.66 -6 7.32 -6 8 C-4.02 8 -2.04 8 0 8 C0 8.99 0 9.98 0 11 C-3.3125 11.25 -3.3125 11.25 -7 11 C-9.41022129 8.900775 -9.90282867 7.56914635 -10.4375 4.4375 C-10 2 -10 2 -8.375 0.125 C-5.23335013 -1.36314994 -3.30955864 -0.82738966 0 0 Z " fill="#D8733D" transform="translate(226,148)"/>
<path d="M0 0 C2 2 2 2 2 6 C-0.31 6 -2.62 6 -5 6 C-5 6.66 -5 7.32 -5 8 C-3.02 8 -1.04 8 1 8 C0.67 8.99 0.34 9.98 0 11 C-5.4 11.36 -5.4 11.36 -7.875 9.875 C-9.54663625 7.08893958 -9.46376624 5.18011138 -9 2 C-6.12524616 -1.3006433 -4.03854228 -1.38160657 0 0 Z " fill="#D4662C" transform="translate(446,148)"/>
<path d="M0 0 C3.24208567 0.35049575 4.61527704 0.56221181 6.8125 3.0625 C7.204375 3.701875 7.59625 4.34125 8 5 C8.99 3.35 9.98 1.7 11 0 C12.32 0.33 13.64 0.66 15 1 C14.65066406 1.49628906 14.30132812 1.99257812 13.94140625 2.50390625 C10.85889249 7.10584605 9.34610059 10.46239061 9 16 C7.68 16 6.36 16 5 16 C4.89042969 15.34773437 4.78085938 14.69546875 4.66796875 14.0234375 C3.73491038 8.8802377 2.65215917 4.58100221 0 0 Z " fill="#D36428" transform="translate(132,143)"/>
<path d="M0 0 C2 2 2 2 2.1953125 4.3828125 C2.17210937 5.28773438 2.14890625 6.19265625 2.125 7.125 C2.10695313 8.03507813 2.08890625 8.94515625 2.0703125 9.8828125 C2.04710937 10.58148438 2.02390625 11.28015625 2 12 C-5.75 12.125 -5.75 12.125 -8 11 C-7.6875 9.125 -7.6875 9.125 -7 7 C-4 5 -4 5 -1 5 C-1 4.34 -1 3.68 -1 3 C-2.65 3.33 -4.3 3.66 -6 4 C-6.33 3.01 -6.66 2.02 -7 1 C-4.48718205 -0.25640898 -2.78302919 -0.20872719 0 0 Z " fill="#D8743F" transform="translate(504,147)"/>
<path d="M0 0 C7.35678392 -0.48241206 7.35678392 -0.48241206 10 1.5 C11.44831655 5.12079138 11.19435828 8.11283436 11 12 C9.68 12 8.36 12 7 12 C7 9.03 7 6.06 7 3 C6.01 3.33 5.02 3.66 4 4 C3.67 6.64 3.34 9.28 3 12 C2.01 12 1.02 12 0 12 C0 8.04 0 4.08 0 0 Z " fill="#D56930" transform="translate(450,147)"/>
<path d="M0 0 C6.0546875 -0.1953125 6.0546875 -0.1953125 8 0 C10 2 10 2 10.1953125 4.3828125 C10.17210937 5.28773438 10.14890625 6.19265625 10.125 7.125 C10.10695313 8.03507813 10.08890625 8.94515625 10.0703125 9.8828125 C10.04710937 10.58148438 10.02390625 11.28015625 10 12 C9.01 12 8.02 12 7 12 C6.67 9.36 6.34 6.72 6 4 C5.01 3.67 4.02 3.34 3 3 C3 5.97 3 8.94 3 12 C2.01 12 1.02 12 0 12 C0 8.04 0 4.08 0 0 Z " fill="#D36428" transform="translate(522,147)"/>
<path d="M0 0 C6.0546875 -0.1953125 6.0546875 -0.1953125 8 0 C10 2 10 2 10.1953125 4.3828125 C10.17210937 5.28773438 10.14890625 6.19265625 10.125 7.125 C10.10695313 8.03507813 10.08890625 8.94515625 10.0703125 9.8828125 C10.04710937 10.58148438 10.02390625 11.28015625 10 12 C9.01 12 8.02 12 7 12 C7 9.03 7 6.06 7 3 C6.01 3.33 5.02 3.66 4 4 C3.67 6.64 3.34 9.28 3 12 C2.01 12 1.02 12 0 12 C0 8.04 0 4.08 0 0 Z " fill="#D15D1F" transform="translate(509,147)"/>
<path d="M0 0 C6.0546875 -0.1953125 6.0546875 -0.1953125 8 0 C10 2 10 2 10.1953125 4.3828125 C10.17210937 5.28773438 10.14890625 6.19265625 10.125 7.125 C10.10695312 8.03507813 10.08890625 8.94515625 10.0703125 9.8828125 C10.04710937 10.58148438 10.02390625 11.28015625 10 12 C9.01 12 8.02 12 7 12 C7 9.03 7 6.06 7 3 C5.68 3 4.36 3 3 3 C3 5.97 3 8.94 3 12 C2.01 12 1.02 12 0 12 C0 8.04 0 4.08 0 0 Z " fill="#D15D1E" transform="translate(204,147)"/>
<path d="M0 0 C0.94875 0.04125 1.8975 0.0825 2.875 0.125 C4.25625018 2.88750036 4.06579306 5.07231099 3.875 8.125 C1.875 10.125 1.875 10.125 -0.625 10.4375 C-1.8625 10.2828125 -1.8625 10.2828125 -3.125 10.125 C-5.27415785 6.90126323 -5.50786803 5.85796326 -5.125 2.125 C-3.125 0.125 -3.125 0.125 0 0 Z " fill="#FCF6F2" transform="translate(194.125,145.875)"/>
<path d="M0 0 C1.875 0.25 1.875 0.25 4 1 C5.25 3.0625 5.25 3.0625 6 5 C6.66 3.35 7.32 1.7 8 0 C9.32 0 10.64 0 12 0 C11.54738642 1.43931117 11.08767021 2.87638999 10.625 4.3125 C10.36976563 5.11300781 10.11453125 5.91351563 9.8515625 6.73828125 C9 9 9 9 7 12 C6.01 12 5.02 12 4 12 C3.32645501 10.56570999 2.66140299 9.12742943 2 7.6875 C1.62875 6.88699219 1.2575 6.08648437 0.875 5.26171875 C0 3 0 3 0 0 Z " fill="#D66C33" transform="translate(425,147)"/>
<path d="M0 0 C0.99 0 1.98 0 3 0 C3 0.99 3 1.98 3 3 C3.66 3 4.32 3 5 3 C5 3.99 5 4.98 5 6 C4.34 6 3.68 6 3 6 C3 7.98 3 9.96 3 12 C3.66 12 4.32 12 5 12 C5 12.99 5 13.98 5 15 C3.33388095 15.042721 1.66617115 15.04063832 0 15 C-1.71906647 13.28093353 -1.45036917 10.97167136 -1.6875 8.625 C-1.79449219 7.64789063 -1.90148437 6.67078125 -2.01171875 5.6640625 C-2 3 -2 3 0 0 Z " fill="#D7723B" transform="translate(251,144)"/>
<path d="M0 0 C0 0.66 0 1.32 0 2 C-0.66 2 -1.32 2 -2 2 C-2 2.66 -2 3.32 -2 4 C-1.34 4 -0.68 4 0 4 C0 4.99 0 5.98 0 7 C-0.66 7 -1.32 7 -2 7 C-2 9.97 -2 12.94 -2 16 C-3.32 16 -4.64 16 -6 16 C-6.24979445 14.08591243 -6.47408014 12.16848389 -6.6875 10.25 C-6.81511719 9.18265625 -6.94273437 8.1153125 -7.07421875 7.015625 C-7 4 -7 4 -5.76953125 1.609375 C-4 0 -4 0 0 0 Z " fill="#D56930" transform="translate(385,143)"/>
<path d="M0 0 C0.99 0 1.98 0 3 0 C3.33 2.64 3.66 5.28 4 8 C4.66 8 5.32 8 6 8 C6.33 5.36 6.66 2.72 7 0 C7.99 0 8.98 0 10 0 C10 3.63 10 7.26 10 11 C3.9453125 11.1953125 3.9453125 11.1953125 2 11 C0 9 0 9 -0.1953125 6.8359375 C-0.17210937 6.02382812 -0.14890625 5.21171875 -0.125 4.375 C-0.10695313 3.55773437 -0.08890625 2.74046875 -0.0703125 1.8984375 C-0.04710937 1.27195313 -0.02390625 0.64546875 0 0 Z " fill="#D05717" transform="translate(320,148)"/>
<path d="M0 0 C2.475 0.495 2.475 0.495 5 1 C5.33 1.66 5.66 2.32 6 3 C5.34 3 4.68 3 4 3 C4.08378906 3.60328125 4.16757812 4.2065625 4.25390625 4.828125 C4.35574219 5.62734375 4.45757812 6.4265625 4.5625 7.25 C4.66691406 8.03890625 4.77132813 8.8278125 4.87890625 9.640625 C5.00027349 12.00532874 4.69633257 13.7511037 4 16 C2.68 16 1.36 16 0 16 C0 10.72 0 5.44 0 0 Z " fill="#D7723C" transform="translate(271,147)"/>
<path d="M0 0 C1.32 0 2.64 0 4 0 C4 5.61 4 11.22 4 17 C2.68 17 1.36 17 0 17 C0 11.39 0 5.78 0 0 Z " fill="#D66F38" transform="translate(490,142)"/>
<path d="M0 0 C0.66 0 1.32 0 2 0 C2 0.99 2 1.98 2 3 C2.99 3 3.98 3 5 3 C5 3.99 5 4.98 5 6 C4.01 6 3.02 6 2 6 C2 7.98 2 9.96 2 12 C2.99 12.33 3.98 12.66 5 13 C4.67 13.66 4.34 14.32 4 15 C2.35 14.67 0.7 14.34 -1 14 C-1 11.36 -1 8.72 -1 6 C-1.66 6 -2.32 6 -3 6 C-3 5.01 -3 4.02 -3 3 C-2.34 3 -1.68 3 -1 3 C-0.67 2.01 -0.34 1.02 0 0 Z " fill="#D36428" transform="translate(465,144)"/>
<path d="M0 0 C2.64 0 5.28 0 8 0 C8 1.32 8 2.64 8 4 C6.68 4 5.36 4 4 4 C4 6.64 4 9.28 4 12 C2.68 12 1.36 12 0 12 C0 8.04 0 4.08 0 0 Z " fill="#D8733D" transform="translate(172,147)"/>
<path d="M0 0 C0.66 0 1.32 0 2 0 C2 0.99 2 1.98 2 3 C2.99 3 3.98 3 5 3 C5 3.99 5 4.98 5 6 C4.01 6 3.02 6 2 6 C2.44703986 10.47883696 2.44703986 10.47883696 5 14 C3.34385343 14.38218767 1.67542976 14.71395102 0 15 C-1 14 -1 14 -1.09765625 12.15234375 C-1.06510417 10.1015625 -1.03255208 8.05078125 -1 6 C-1.66 6 -2.32 6 -3 6 C-3 5.34 -3 4.68 -3 4 C-2.34 4 -1.68 4 -1 4 C-0.67 2.68 -0.34 1.36 0 0 Z " fill="#D26124" transform="translate(335,144)"/>
<path d="M0 0 C1.32 0 2.64 0 4 0 C4 3.96 4 7.92 4 12 C2.68 12 1.36 12 0 12 C0 8.04 0 4.08 0 0 Z " fill="#D87540" transform="translate(342,147)"/>
<path d="M0 0 C0.99 0 1.98 0 3 0 C3 5.28 3 10.56 3 16 C2.01 16 1.02 16 0 16 C0 10.72 0 5.44 0 0 Z " fill="#D05716" transform="translate(314,143)"/>
<path d="M0 0 C0 0.99 0 1.98 0 3 C-1.32 3.33 -2.64 3.66 -4 4 C-4 6.64 -4 9.28 -4 12 C-4.99 12 -5.98 12 -7 12 C-7 8.37 -7 4.74 -7 1 C-2 0 -2 0 0 0 Z " fill="#D15C1D" transform="translate(407,147)"/>
<path d="M0 0 C2.475 0.495 2.475 0.495 5 1 C4.34 4.63 3.68 8.26 3 12 C2.01 12 1.02 12 0 12 C0 8.04 0 4.08 0 0 Z " fill="#D25E20" transform="translate(450,147)"/>
<path d="M0 0 C1.67542976 0.28604898 3.34385343 0.61781233 5 1 C5 4.3 5 7.6 5 11 C4.01 11 3.02 11 2 11 C1.8046875 8.98177083 1.609375 6.96354167 1.4140625 4.9453125 C1.13625251 2.77331755 1.13625251 2.77331755 -1 1 C-0.67 0.67 -0.34 0.34 0 0 Z " fill="#D05919" transform="translate(527,148)"/>
<path d="M0 0 C0.66 0.33 1.32 0.66 2 1 C2.4140625 3.06640625 2.4140625 3.06640625 2.625 5.5625 C2.69976562 6.38878906 2.77453125 7.21507812 2.8515625 8.06640625 C2.90054687 8.70449219 2.94953125 9.34257812 3 10 C2.01 10.33 1.02 10.66 0 11 C0 10.01 0 9.02 0 8 C-0.66 8 -1.32 8 -2 8 C-2 6.02 -2 4.04 -2 2 C-1.34 2 -0.68 2 0 2 C0 1.34 0 0.68 0 0 Z " fill="#FBF2EC" transform="translate(256,148)"/>
<path d="M0 0 C0.99 0 1.98 0 3 0 C3 3.63 3 7.26 3 11 C2.01 11 1.02 11 0 11 C0 7.37 0 3.74 0 0 Z " fill="#D05716" transform="translate(535,148)"/>
<path d="M0 0 C2.0625 0.4375 2.0625 0.4375 4 1 C4 2.65 4 4.3 4 6 C2.68 6.33 1.36 6.66 0 7 C-0.38133299 5.0085944 -0.71325582 3.00720923 -1 1 C-0.67 0.67 -0.34 0.34 0 0 Z " fill="#F8E7DD" transform="translate(150,150)"/>
<path d="M0 0 C4.75 0.75 4.75 0.75 7 3 C7 3.99 7 4.98 7 6 C4.69 5.67 2.38 5.34 0 5 C0 4.34 0 3.68 0 3 C0.66 2.67 1.32 2.34 2 2 C1.34 1.34 0.68 0.68 0 0 Z " fill="#E09167" transform="translate(441,147)"/>
<path d="M0 0 C1.98 0.495 1.98 0.495 4 1 C4 2.65 4 4.3 4 6 C2.35 5.67 0.7 5.34 -1 5 C-0.67 3.35 -0.34 1.7 0 0 Z " fill="#F9EDE6" transform="translate(352,150)"/>
<path d="M0 0 C1.98 0.495 1.98 0.495 4 1 C4 2.65 4 4.3 4 6 C2.35 5.67 0.7 5.34 -1 5 C-0.67 3.35 -0.34 1.7 0 0 Z " fill="#F9ECE4" transform="translate(262,150)"/>
<path d="M0 0 C2.0625 0.4375 2.0625 0.4375 4 1 C3.01 2.485 3.01 2.485 2 4 C2.66 4 3.32 4 4 4 C4 4.66 4 5.32 4 6 C1.03 5.505 1.03 5.505 -2 5 C-1.125 1.125 -1.125 1.125 0 0 Z " fill="#D36327" transform="translate(498,153)"/>
<path d="M0 0 C1.32 0 2.64 0 4 0 C4 1.98 4 3.96 4 6 C2.68 6 1.36 6 0 6 C0 4.02 0 2.04 0 0 Z " fill="#FBF1EB" transform="translate(390,150)"/>
<path d="M0 0 C1.32 0 2.64 0 4 0 C4 1.98 4 3.96 4 6 C2.68 6 1.36 6 0 6 C0 4.02 0 2.04 0 0 Z " fill="#FBF1EB" transform="translate(304,150)"/>
<path d="M0 0 C1.32 0.33 2.64 0.66 4 1 C4 2.65 4 4.3 4 6 C2.68 6 1.36 6 0 6 C0 4.02 0 2.04 0 0 Z " fill="#FAEFE9" transform="translate(275,150)"/>
<path d="M0 0 C1.65 0 3.3 0 5 0 C4.34 1.98 3.68 3.96 3 6 C2.01 6 1.02 6 0 6 C0 4.02 0 2.04 0 0 Z " fill="#D25E20" transform="translate(559,148)"/>
<path d="M0 0 C2.475 0.495 2.475 0.495 5 1 C4.67 2.32 4.34 3.64 4 5 C2.68 5 1.36 5 0 5 C0 3.35 0 1.7 0 0 Z " fill="#FAEDE7" transform="translate(480,146)"/>
<path d="M0 0 C2.625 1.3125 2.625 1.3125 5 3 C5 3.66 5 4.32 5 5 C3.35 5 1.7 5 0 5 C-0.66 3.68 -1.32 2.36 -2 1 C-1.34 0.67 -0.68 0.34 0 0 Z " fill="#D36428" transform="translate(555,158)"/>
<path d="M0 0 C1.98 0 3.96 0 6 0 C6 0.99 6 1.98 6 3 C4.02 3 2.04 3 0 3 C0 2.01 0 1.02 0 0 Z " fill="#D76F38" transform="translate(229,151)"/>
</svg>
