<svg xmlns="http://www.w3.org/2000/svg" xmlns:xlink="http://www.w3.org/1999/xlink" width="500" zoomAndPan="magnify" viewBox="0 0 375 200" height="525" preserveAspectRatio="xMidYMid meet" version="1.0"><defs><g/></defs><rect x="-37.5" width="450" fill="#ffffff" y="-37.499999" height="449.999989" fill-opacity="1"/><rect x="-37.5" width="450" fill="#000000" y="-37.499999" height="449.999989" fill-opacity="1"/><g fill="#ffffff" fill-opacity="1"><g transform="translate(37.535158, 207.000236)"><g><path d="M 38.875 -31.265625 L 38.875 -50.125 L 48.75 -50.125 L 48.75 0 L 38.875 0 L 38.875 -22.828125 L 16.421875 -22.828125 L 16.421875 0 L 6.515625 0 L 6.515625 -50.125 L 16.421875 -50.125 L 16.421875 -31.265625 Z M 38.875 -31.265625 "/></g></g></g><g fill="#ffffff" fill-opacity="1"><g transform="translate(92.830054, 207.000236)"><g><path d="M 10.1875 -42.34375 C 8.46875 -42.34375 7.070312 -42.863281 6 -43.90625 C 4.925781 -44.945312 4.390625 -46.289062 4.390625 -47.9375 C 4.390625 -49.550781 4.925781 -50.878906 6 -51.921875 C 7.070312 -52.960938 8.46875 -53.484375 10.1875 -53.484375 C 11.320312 -53.484375 12.335938 -53.242188 13.234375 -52.765625 C 14.128906 -52.285156 14.820312 -51.628906 15.3125 -50.796875 C 15.800781 -49.960938 16.046875 -49.007812 16.046875 -47.9375 C 16.046875 -46.863281 15.800781 -45.898438 15.3125 -45.046875 C 14.820312 -44.203125 14.128906 -43.539062 13.234375 -43.0625 C 12.335938 -42.582031 11.320312 -42.34375 10.1875 -42.34375 Z M 5.453125 0 L 5.453125 -37.8125 L 14.953125 -37.8125 L 14.953125 0 Z M 5.453125 0 "/></g></g></g><g fill="#ffffff" fill-opacity="1"><g transform="translate(113.192834, 207.000236)"><g><path d="M 5.453125 0 L 5.453125 -37.8125 L 14.671875 -37.8125 L 14.671875 -32.1875 L 15.390625 -32.0625 C 16.304688 -34.164062 17.503906 -35.707031 18.984375 -36.6875 C 20.472656 -37.664062 22.28125 -38.15625 24.40625 -38.15625 C 26.5625 -38.15625 28.195312 -37.789062 29.3125 -37.0625 L 27.703125 -28.875 L 26.984375 -28.734375 C 26.367188 -28.984375 25.773438 -29.164062 25.203125 -29.28125 C 24.628906 -29.394531 23.929688 -29.453125 23.109375 -29.453125 C 20.453125 -29.453125 18.425781 -28.519531 17.03125 -26.65625 C 15.644531 -24.789062 14.953125 -21.800781 14.953125 -17.6875 L 14.953125 0 Z M 5.453125 0 "/></g></g></g><g fill="#ffffff" fill-opacity="1"><g transform="translate(142.845709, 207.000236)"><g><path d="M 37.375 -16.765625 L 13.0625 -16.765625 C 13.332031 -13.472656 14.269531 -11.078125 15.875 -9.578125 C 17.476562 -8.085938 19.660156 -7.34375 22.421875 -7.34375 C 24.597656 -7.34375 26.359375 -7.742188 27.703125 -8.546875 C 29.046875 -9.359375 30.128906 -10.585938 30.953125 -12.234375 L 31.6875 -12.234375 L 37.984375 -8.1875 C 36.753906 -5.539062 34.890625 -3.394531 32.390625 -1.75 C 29.898438 -0.101562 26.578125 0.71875 22.421875 0.71875 C 18.515625 0.71875 15.132812 -0.0195312 12.28125 -1.5 C 9.4375 -2.988281 7.242188 -5.203125 5.703125 -8.140625 C 4.160156 -11.078125 3.390625 -14.660156 3.390625 -18.890625 C 3.390625 -23.191406 4.203125 -26.816406 5.828125 -29.765625 C 7.453125 -32.710938 9.644531 -34.910156 12.40625 -36.359375 C 15.175781 -37.804688 18.285156 -38.53125 21.734375 -38.53125 C 27.085938 -38.53125 31.1875 -37.113281 34.03125 -34.28125 C 36.875 -31.445312 38.296875 -27.289062 38.296875 -21.8125 C 38.296875 -19.820312 38.226562 -18.273438 38.09375 -17.171875 Z M 29.21875 -22.90625 C 29.125 -25.78125 28.453125 -27.875 27.203125 -29.1875 C 25.960938 -30.507812 24.140625 -31.171875 21.734375 -31.171875 C 16.929688 -31.171875 14.109375 -28.414062 13.265625 -22.90625 Z M 29.21875 -22.90625 "/></g></g></g><g fill="#ffffff" fill-opacity="1"><g transform="translate(183.948364, 207.000236)"><g><path d="M 15.703125 0.71875 C 12.296875 0.71875 9.695312 -0.195312 7.90625 -2.03125 C 6.113281 -3.875 5.21875 -6.671875 5.21875 -10.421875 L 5.21875 -53 L 14.703125 -53 L 14.703125 -10.796875 C 14.703125 -8.492188 15.664062 -7.34375 17.59375 -7.34375 C 18.132812 -7.34375 18.71875 -7.429688 19.34375 -7.609375 L 19.8125 -7.46875 L 20.671875 -0.171875 C 20.148438 0.0976562 19.453125 0.3125 18.578125 0.46875 C 17.710938 0.632812 16.753906 0.71875 15.703125 0.71875 Z M 15.703125 0.71875 "/></g></g></g><g fill="#ffffff" fill-opacity="1"><g transform="translate(205.682374, 207.000236)"><g><path d="M 8.359375 16.046875 C 6.742188 16.046875 5.273438 15.921875 3.953125 15.671875 C 2.640625 15.421875 1.570312 15.085938 0.75 14.671875 L 2.265625 7 L 2.875 6.78125 C 3.445312 7.082031 4.15625 7.320312 5 7.5 C 5.851562 7.6875 6.722656 7.78125 7.609375 7.78125 C 9.140625 7.78125 10.410156 7.578125 11.421875 7.171875 C 12.441406 6.773438 13.304688 6.113281 14.015625 5.1875 C 14.734375 4.269531 15.363281 2.988281 15.90625 1.34375 L 0.828125 -37.8125 L 10.765625 -37.8125 L 20.15625 -11.515625 L 20.984375 -11.515625 L 30.140625 -37.8125 L 39.8125 -37.8125 L 24.625 2.359375 C 23.40625 5.609375 22.070312 8.222656 20.625 10.203125 C 19.175781 12.179688 17.460938 13.648438 15.484375 14.609375 C 13.503906 15.566406 11.128906 16.046875 8.359375 16.046875 Z M 8.359375 16.046875 "/></g></g></g><g fill="#ffffff" fill-opacity="1"><g transform="translate(246.270801, 207.000236)"><g><path d="M 9.671875 0.3125 C 8.460938 0.3125 7.394531 0.0664062 6.46875 -0.421875 C 5.539062 -0.921875 4.828125 -1.601562 4.328125 -2.46875 C 3.835938 -3.332031 3.59375 -4.316406 3.59375 -5.421875 C 3.59375 -6.515625 3.835938 -7.492188 4.328125 -8.359375 C 4.828125 -9.234375 5.539062 -9.921875 6.46875 -10.421875 C 7.394531 -10.921875 8.460938 -11.171875 9.671875 -11.171875 C 10.898438 -11.171875 11.976562 -10.925781 12.90625 -10.4375 C 13.832031 -9.945312 14.539062 -9.265625 15.03125 -8.390625 C 15.519531 -7.523438 15.765625 -6.546875 15.765625 -5.453125 C 15.765625 -3.785156 15.210938 -2.40625 14.109375 -1.3125 C 13.003906 -0.226562 11.523438 0.3125 9.671875 0.3125 Z M 9.671875 0.3125 "/></g></g></g><g fill="#ffffff" fill-opacity="1"><g transform="translate(265.639444, 207.000236)"><g><path d="M 48.109375 0 L 37.6875 0 L 33.90625 -11.546875 L 14.703125 -11.546875 L 10.9375 0 L 0.75 0 L 18.0625 -50.125 L 30.796875 -50.125 Z M 23.828125 -39.671875 L 17.390625 -19.890625 L 31.171875 -19.890625 L 24.6875 -39.671875 Z M 23.828125 -39.671875 "/></g></g></g><g fill="#ffffff" fill-opacity="1"><g transform="translate(314.489554, 207.000236)"><g><path d="M 16.421875 0 L 6.515625 0 L 6.515625 -50.125 L 16.421875 -50.125 Z M 16.421875 0 "/></g></g></g></svg>