<svg xmlns="http://www.w3.org/2000/svg" xmlns:xlink="http://www.w3.org/1999/xlink" width="500" zoomAndPan="magnify" viewBox="0 0 375 200" height="525" preserveAspectRatio="xMidYMid meet" version="1.0"><defs><g/></defs><rect x="-37.5" width="450" fill="#ffffff" y="-37.499999" height="449.999989" fill-opacity="1"/><rect x="-37.5" width="450" fill="#000000" y="-37.499999" height="449.999989" fill-opacity="1"/><g fill="#00bcd4" fill-opacity="1"><g transform="translate(55.587841, 203.7162)"><g><path d="M 20.84375 6.609375 C 17.039062 6.609375 13.742188 5.863281 10.953125 4.375 C 8.171875 2.894531 6.03125 0.753906 4.53125 -2.046875 C 3.039062 -4.847656 2.296875 -8.191406 2.296875 -12.078125 C 2.296875 -15.722656 3.054688 -18.96875 4.578125 -21.8125 C 6.097656 -24.65625 8.285156 -26.875 11.140625 -28.46875 C 14.003906 -30.0625 17.367188 -30.859375 21.234375 -30.859375 C 25.078125 -30.859375 28.359375 -30.132812 31.078125 -28.6875 C 33.796875 -27.238281 35.859375 -25.179688 37.265625 -22.515625 C 38.671875 -19.859375 39.375 -16.742188 39.375 -13.171875 C 39.375 -10.992188 39.035156 -9.082031 38.359375 -7.4375 C 37.691406 -5.789062 36.734375 -4.515625 35.484375 -3.609375 C 34.242188 -2.710938 32.796875 -2.265625 31.140625 -2.265625 C 28.140625 -2.265625 26.175781 -3.367188 25.25 -5.578125 L 24.84375 -5.578125 C 24.28125 -4.429688 23.535156 -3.59375 22.609375 -3.0625 C 21.691406 -2.53125 20.550781 -2.265625 19.1875 -2.265625 C 17.613281 -2.265625 16.242188 -2.628906 15.078125 -3.359375 C 13.910156 -4.097656 13 -5.195312 12.34375 -6.65625 C 11.695312 -8.113281 11.375 -9.882812 11.375 -11.96875 C 11.375 -14.019531 11.703125 -15.773438 12.359375 -17.234375 C 13.023438 -18.703125 13.941406 -19.8125 15.109375 -20.5625 C 16.285156 -21.320312 17.625 -21.703125 19.125 -21.703125 C 20.289062 -21.703125 21.257812 -21.492188 22.03125 -21.078125 C 22.8125 -20.660156 23.484375 -19.992188 24.046875 -19.078125 L 24.453125 -19.140625 L 24.453125 -21.34375 L 29.71875 -21.34375 L 29.71875 -8.90625 C 29.71875 -7.207031 30.347656 -6.359375 31.609375 -6.359375 C 32.503906 -6.359375 33.226562 -6.898438 33.78125 -7.984375 C 34.34375 -9.078125 34.625 -10.804688 34.625 -13.171875 C 34.625 -17.410156 33.515625 -20.679688 31.296875 -22.984375 C 29.078125 -25.296875 25.722656 -26.453125 21.234375 -26.453125 C 18.460938 -26.453125 16.023438 -25.867188 13.921875 -24.703125 C 11.816406 -23.546875 10.1875 -21.882812 9.03125 -19.71875 C 7.875 -17.550781 7.296875 -15.003906 7.296875 -12.078125 C 7.296875 -7.347656 8.460938 -3.789062 10.796875 -1.40625 C 13.140625 0.96875 16.488281 2.15625 20.84375 2.15625 C 22.269531 2.15625 23.597656 2.007812 24.828125 1.71875 C 26.066406 1.425781 27.132812 1.03125 28.03125 0.53125 L 28.4375 0.53125 L 29.828125 4.34375 C 29.347656 4.738281 28.644531 5.109375 27.71875 5.453125 C 26.789062 5.796875 25.722656 6.070312 24.515625 6.28125 C 23.316406 6.5 22.09375 6.609375 20.84375 6.609375 Z M 20.625 -6.734375 C 21.800781 -6.734375 22.71875 -7.160156 23.375 -8.015625 C 24.03125 -8.878906 24.359375 -10.195312 24.359375 -11.96875 C 24.359375 -13.738281 24.023438 -15.050781 23.359375 -15.90625 C 22.703125 -16.769531 21.789062 -17.203125 20.625 -17.203125 C 19.382812 -17.203125 18.453125 -16.789062 17.828125 -15.96875 C 17.203125 -15.144531 16.890625 -13.8125 16.890625 -11.96875 C 16.890625 -10.125 17.203125 -8.789062 17.828125 -7.96875 C 18.453125 -7.144531 19.382812 -6.734375 20.625 -6.734375 Z M 20.625 -6.734375 "/></g></g></g><g fill="#00bcd4" fill-opacity="1"><g transform="translate(96.990049, 203.7162)"><g><path d="M 3.359375 0 L 3.359375 -23.28125 L 8.96875 -23.28125 L 8.96875 -20.15625 L 9.421875 -20.078125 C 10.179688 -21.328125 11.066406 -22.25 12.078125 -22.84375 C 13.097656 -23.4375 14.40625 -23.734375 16 -23.734375 C 17.757812 -23.734375 19.171875 -23.382812 20.234375 -22.6875 C 21.304688 -21.988281 22.09375 -20.96875 22.59375 -19.625 L 23.03125 -19.625 C 23.75 -21.019531 24.671875 -22.050781 25.796875 -22.71875 C 26.929688 -23.394531 28.347656 -23.734375 30.046875 -23.734375 C 34.867188 -23.734375 37.28125 -21.039062 37.28125 -15.65625 L 37.28125 0 L 31.4375 0 L 31.4375 -14.921875 C 31.4375 -16.285156 31.164062 -17.269531 30.625 -17.875 C 30.09375 -18.476562 29.238281 -18.78125 28.0625 -18.78125 C 24.851562 -18.78125 23.25 -16.632812 23.25 -12.34375 L 23.25 0 L 17.390625 0 L 17.390625 -14.921875 C 17.390625 -16.285156 17.117188 -17.269531 16.578125 -17.875 C 16.035156 -18.476562 15.175781 -18.78125 14 -18.78125 C 12.488281 -18.78125 11.3125 -18.273438 10.46875 -17.265625 C 9.625 -16.265625 9.203125 -14.664062 9.203125 -12.46875 L 9.203125 0 Z M 3.359375 0 "/></g></g></g><g fill="#00bcd4" fill-opacity="1"><g transform="translate(137.273272, 203.7162)"><g><path d="M 13.53125 0.4375 C 11.25 0.4375 9.242188 -0.0234375 7.515625 -0.953125 C 5.796875 -1.890625 4.460938 -3.265625 3.515625 -5.078125 C 2.566406 -6.890625 2.09375 -9.070312 2.09375 -11.625 C 2.09375 -14.1875 2.566406 -16.375 3.515625 -18.1875 C 4.460938 -20.007812 5.796875 -21.390625 7.515625 -22.328125 C 9.242188 -23.265625 11.25 -23.734375 13.53125 -23.734375 C 15.8125 -23.734375 17.8125 -23.265625 19.53125 -22.328125 C 21.257812 -21.390625 22.601562 -20.007812 23.5625 -18.1875 C 24.519531 -16.375 25 -14.1875 25 -11.625 C 25 -9.070312 24.519531 -6.890625 23.5625 -5.078125 C 22.601562 -3.265625 21.257812 -1.890625 19.53125 -0.953125 C 17.8125 -0.0234375 15.8125 0.4375 13.53125 0.4375 Z M 13.53125 -4.515625 C 17.144531 -4.515625 18.953125 -6.882812 18.953125 -11.625 C 18.953125 -14.09375 18.488281 -15.898438 17.5625 -17.046875 C 16.632812 -18.191406 15.289062 -18.765625 13.53125 -18.765625 C 9.914062 -18.765625 8.109375 -16.382812 8.109375 -11.625 C 8.109375 -6.882812 9.914062 -4.515625 13.53125 -4.515625 Z M 13.53125 -4.515625 "/></g></g></g><g fill="#00bcd4" fill-opacity="1"><g transform="translate(164.339882, 203.7162)"><g><path d="M 16.015625 0 L 9.0625 0 L 0.4375 -23.28125 L 6.5625 -23.28125 L 12.34375 -6.6875 L 12.828125 -6.6875 L 18.640625 -23.28125 L 24.609375 -23.28125 Z M 16.015625 0 "/></g></g></g><g fill="#00bcd4" fill-opacity="1"><g transform="translate(189.379663, 203.7162)"><g><path d="M 6.265625 -26.078125 C 5.210938 -26.078125 4.351562 -26.394531 3.6875 -27.03125 C 3.03125 -27.675781 2.703125 -28.503906 2.703125 -29.515625 C 2.703125 -30.515625 3.03125 -31.332031 3.6875 -31.96875 C 4.351562 -32.613281 5.210938 -32.9375 6.265625 -32.9375 C 6.972656 -32.9375 7.597656 -32.785156 8.140625 -32.484375 C 8.691406 -32.191406 9.117188 -31.785156 9.421875 -31.265625 C 9.722656 -30.753906 9.875 -30.171875 9.875 -29.515625 C 9.875 -28.847656 9.722656 -28.253906 9.421875 -27.734375 C 9.117188 -27.210938 8.691406 -26.804688 8.140625 -26.515625 C 7.597656 -26.222656 6.972656 -26.078125 6.265625 -26.078125 Z M 3.359375 0 L 3.359375 -23.28125 L 9.203125 -23.28125 L 9.203125 0 Z M 3.359375 0 "/></g></g></g><g fill="#00bcd4" fill-opacity="1"><g transform="translate(201.920667, 203.7162)"><g><path d="M 3.359375 0 L 3.359375 -23.28125 L 8.96875 -23.28125 L 8.96875 -19.859375 L 9.421875 -19.765625 C 10.867188 -22.410156 13.21875 -23.734375 16.46875 -23.734375 C 19.15625 -23.734375 21.128906 -23 22.390625 -21.53125 C 23.648438 -20.070312 24.28125 -17.941406 24.28125 -15.140625 L 24.28125 0 L 18.421875 0 L 18.421875 -14.421875 C 18.421875 -15.960938 18.113281 -17.070312 17.5 -17.75 C 16.882812 -18.4375 15.894531 -18.78125 14.53125 -18.78125 C 12.851562 -18.78125 11.546875 -18.238281 10.609375 -17.15625 C 9.671875 -16.070312 9.203125 -14.367188 9.203125 -12.046875 L 9.203125 0 Z M 3.359375 0 "/></g></g></g><g fill="#00bcd4" fill-opacity="1"><g transform="translate(229.198405, 203.7162)"><g><path d="M 5.953125 0.1875 C 5.203125 0.1875 4.539062 0.0351562 3.96875 -0.265625 C 3.40625 -0.566406 2.972656 -0.984375 2.671875 -1.515625 C 2.367188 -2.054688 2.21875 -2.660156 2.21875 -3.328125 C 2.21875 -4.003906 2.367188 -4.609375 2.671875 -5.140625 C 2.972656 -5.679688 3.40625 -6.101562 3.96875 -6.40625 C 4.539062 -6.71875 5.203125 -6.875 5.953125 -6.875 C 6.710938 -6.875 7.375 -6.722656 7.9375 -6.421875 C 8.507812 -6.117188 8.945312 -5.703125 9.25 -5.171875 C 9.550781 -4.640625 9.703125 -4.035156 9.703125 -3.359375 C 9.703125 -2.328125 9.359375 -1.476562 8.671875 -0.8125 C 7.992188 -0.144531 7.085938 0.1875 5.953125 0.1875 Z M 5.953125 0.1875 "/></g></g></g><g fill="#00bcd4" fill-opacity="1"><g transform="translate(241.127144, 203.7162)"><g><path d="M 11.5 0.4375 C 9.65625 0.4375 8.023438 -0.00390625 6.609375 -0.890625 C 5.203125 -1.785156 4.097656 -3.132812 3.296875 -4.9375 C 2.492188 -6.75 2.09375 -8.976562 2.09375 -11.625 C 2.09375 -14.289062 2.503906 -16.523438 3.328125 -18.328125 C 4.148438 -20.140625 5.289062 -21.492188 6.75 -22.390625 C 8.207031 -23.285156 9.890625 -23.734375 11.796875 -23.734375 C 13.242188 -23.734375 14.5 -23.484375 15.5625 -22.984375 C 16.625 -22.484375 17.523438 -21.703125 18.265625 -20.640625 L 18.703125 -20.75 L 18.703125 -32.640625 L 24.546875 -32.640625 L 24.546875 0 L 18.703125 0 L 18.703125 -3.015625 L 18.265625 -3.109375 C 17.617188 -2.003906 16.726562 -1.132812 15.59375 -0.5 C 14.46875 0.125 13.101562 0.4375 11.5 0.4375 Z M 13.40625 -4.515625 C 15.050781 -4.515625 16.351562 -5.101562 17.3125 -6.28125 C 18.269531 -7.457031 18.75 -9.238281 18.75 -11.625 C 18.75 -14.019531 18.269531 -15.804688 17.3125 -16.984375 C 16.351562 -18.171875 15.050781 -18.765625 13.40625 -18.765625 C 11.6875 -18.765625 10.375 -18.191406 9.46875 -17.046875 C 8.5625 -15.898438 8.109375 -14.09375 8.109375 -11.625 C 8.109375 -9.175781 8.5625 -7.378906 9.46875 -6.234375 C 10.375 -5.085938 11.6875 -4.515625 13.40625 -4.515625 Z M 13.40625 -4.515625 "/></g></g></g><g fill="#00bcd4" fill-opacity="1"><g transform="translate(269.038265, 203.7162)"><g><path d="M 23.015625 -10.328125 L 8.046875 -10.328125 C 8.210938 -8.296875 8.785156 -6.816406 9.765625 -5.890625 C 10.753906 -4.972656 12.101562 -4.515625 13.8125 -4.515625 C 15.144531 -4.515625 16.222656 -4.765625 17.046875 -5.265625 C 17.878906 -5.765625 18.550781 -6.519531 19.0625 -7.53125 L 19.5 -7.53125 L 23.390625 -5.046875 C 22.628906 -3.410156 21.476562 -2.085938 19.9375 -1.078125 C 18.40625 -0.0664062 16.363281 0.4375 13.8125 0.4375 C 11.40625 0.4375 9.320312 -0.015625 7.5625 -0.921875 C 5.8125 -1.835938 4.460938 -3.195312 3.515625 -5 C 2.566406 -6.8125 2.09375 -9.019531 2.09375 -11.625 C 2.09375 -14.269531 2.59375 -16.5 3.59375 -18.3125 C 4.59375 -20.132812 5.941406 -21.492188 7.640625 -22.390625 C 9.347656 -23.285156 11.265625 -23.734375 13.390625 -23.734375 C 16.679688 -23.734375 19.203125 -22.859375 20.953125 -21.109375 C 22.703125 -19.367188 23.578125 -16.804688 23.578125 -13.421875 C 23.578125 -12.203125 23.535156 -11.253906 23.453125 -10.578125 Z M 17.984375 -14.109375 C 17.929688 -15.878906 17.519531 -17.164062 16.75 -17.96875 C 15.976562 -18.78125 14.859375 -19.1875 13.390625 -19.1875 C 10.429688 -19.1875 8.691406 -17.492188 8.171875 -14.109375 Z M 17.984375 -14.109375 "/></g></g></g><g fill="#00bcd4" fill-opacity="1"><g transform="translate(294.352519, 203.7162)"><g><path d="M 16.015625 0 L 9.0625 0 L 0.4375 -23.28125 L 6.5625 -23.28125 L 12.34375 -6.6875 L 12.828125 -6.6875 L 18.640625 -23.28125 L 24.609375 -23.28125 Z M 16.015625 0 "/></g></g></g></svg>